<svg width="116" height="146" viewBox="0 0 116 146" fill="none" xmlns="http://www.w3.org/2000/svg">
<g clip-path="url(#clip0_1319_7817)">
<rect width="116" height="146" fill="white"/>
<path fill-rule="evenodd" clip-rule="evenodd" d="M116 0H0V146H18.1295C18.158 145.944 18.1846 145.9 18.2003 145.874C18.2445 145.8 18.2979 145.719 18.3558 145.634C18.4725 145.464 18.6306 145.246 18.8244 144.988C19.2135 144.472 19.7673 143.766 20.4684 142.901C21.8717 141.171 23.8788 138.785 26.3672 135.964C31.221 130.46 37.9165 123.286 45.5473 116.069C37.0224 116.573 29.2875 117.773 22.751 119.468C22.2164 119.607 21.6706 119.286 21.532 118.751C21.3934 118.216 21.7144 117.671 22.249 117.532C29.5267 115.645 38.2262 114.366 47.8136 113.95C55.2486 107.081 63.4687 100.302 71.6868 95.0332C80.5085 89.3773 89.4384 85.3889 97.4517 85.0012L97.4758 85H97.5C98.2362 85 98.9619 85.1438 99.5293 85.5867C100.131 86.0562 100.391 86.7309 100.436 87.4376C100.478 88.1166 100.328 88.8784 100.069 89.6823C99.8056 90.4975 99.4071 91.4218 98.8944 92.4472C98.3176 93.6008 96.8106 96.0121 94.792 99.1144C92.7582 102.24 90.1668 106.124 87.3859 110.258C85.0243 113.769 82.5273 117.459 80.1167 121.021L80.1148 121.024C76.8431 125.858 73.7307 130.457 71.332 134.055C71.0257 134.514 70.4048 134.638 69.9453 134.332C69.4858 134.026 69.3616 133.405 69.668 132.945C72.0689 129.344 75.1908 124.731 78.4681 119.888L78.4702 119.885C80.8799 116.325 83.3736 112.64 85.7264 109.142C88.5059 105.01 91.0905 101.136 93.1156 98.0235C95.1558 94.8882 96.5906 92.5827 97.1056 91.5528C97.5929 90.5782 97.9444 89.7525 98.1656 89.0677C98.3904 88.3716 98.4595 87.8834 98.4394 87.5624C98.4211 87.2691 98.3379 87.1938 98.2988 87.1633C98.2267 87.1071 98.0201 87.0032 97.523 87.0001C90.0423 87.3696 81.4817 91.1291 72.7663 96.7168C65.302 101.503 57.8048 107.576 50.8882 113.847C58.3889 113.67 66.3797 114.018 74.6191 115.007C75.1675 115.073 75.5587 115.571 75.4929 116.119C75.4271 116.667 74.9292 117.059 74.3809 116.993C65.379 115.913 56.6883 115.607 48.6321 115.918C48.2518 116.271 47.8736 116.625 47.4975 116.979C39.6815 124.327 32.8126 131.679 27.8672 137.286C25.3947 140.09 23.4057 142.454 22.0219 144.161C21.4152 144.909 20.9273 145.528 20.5673 146H116V0Z" fill="#006298"/>
<path d="M41.3227 41H37.473V40.8652C37.8207 40.834 38.0629 40.7754 38.1996 40.6895C38.4418 40.5371 38.5629 40.3262 38.5629 40.0566C38.5629 39.8965 38.5082 39.6816 38.3988 39.4121L38.2992 39.166L37.7367 37.7832H35.1586L34.8539 38.5918L34.7074 38.9551C34.5316 39.3848 34.4438 39.7227 34.4438 39.9688C34.4438 40.1133 34.475 40.248 34.5375 40.373C34.6039 40.498 34.6918 40.5996 34.8012 40.6777C34.9535 40.7832 35.1488 40.8457 35.3871 40.8652V41H32.7621V40.8652C32.9691 40.8535 33.1508 40.8027 33.307 40.7129C33.4633 40.623 33.6156 40.4785 33.7641 40.2793C33.8891 40.1191 34.0102 39.9141 34.1273 39.6641C34.2484 39.4102 34.4066 39.0312 34.602 38.5273L36.7465 33.002H37.0805L39.6293 39.1602C39.8207 39.625 39.973 39.957 40.0863 40.1562C40.1996 40.3555 40.3227 40.5059 40.4555 40.6074C40.5492 40.6777 40.6566 40.7324 40.7777 40.7715C40.8988 40.8066 41.0805 40.8379 41.3227 40.8652V41ZM37.643 37.543L36.4125 34.5078L35.2523 37.543H37.643ZM42.4467 41V40.8652C42.6733 40.8535 42.8549 40.8223 42.9916 40.7715C43.1323 40.7168 43.2553 40.6348 43.3608 40.5254C43.4858 40.4004 43.5698 40.2422 43.6127 40.0508C43.6557 39.8594 43.6772 39.5625 43.6772 39.1602V34.8418C43.6772 34.4395 43.6557 34.1426 43.6127 33.9512C43.5698 33.7598 43.4858 33.6016 43.3608 33.4766C43.2553 33.3633 43.1323 33.2812 42.9916 33.2305C42.851 33.1797 42.6694 33.1484 42.4467 33.1367V33.002H46.2963C46.687 33.002 46.9428 33.0059 47.0639 33.0137C47.5092 33.0488 47.8784 33.1543 48.1713 33.3301C48.4252 33.4863 48.6205 33.6914 48.7573 33.9453C48.8979 34.1992 48.9682 34.4844 48.9682 34.8008C48.9682 35.3125 48.81 35.7324 48.4936 36.0605C48.3803 36.1816 48.2514 36.2832 48.1069 36.3652C47.9623 36.4434 47.7534 36.5312 47.4799 36.6289C47.8549 36.6914 48.1459 36.7598 48.353 36.834C48.56 36.9082 48.7475 37.0117 48.9155 37.1445C49.1655 37.3477 49.3588 37.6016 49.4955 37.9062C49.6362 38.207 49.7065 38.5332 49.7065 38.8848C49.7065 39.2402 49.6342 39.5664 49.4897 39.8633C49.3491 40.1562 49.1518 40.3926 48.8979 40.5723C48.6674 40.7324 48.392 40.8438 48.0717 40.9062C47.7553 40.9688 47.308 41 46.7299 41H42.4467ZM44.9604 33.1836V36.6641H45.435C45.6577 36.6641 45.8881 36.6484 46.1264 36.6172C46.3334 36.5859 46.4995 36.5488 46.6245 36.5059C46.7534 36.4629 46.8705 36.4043 46.976 36.3301C47.1752 36.1816 47.3276 35.9922 47.433 35.7617C47.5424 35.5273 47.5971 35.2695 47.5971 34.9883C47.5971 34.6914 47.5405 34.4102 47.4272 34.1445C47.3178 33.875 47.1713 33.666 46.9877 33.5176C46.8276 33.3887 46.644 33.3008 46.437 33.2539C46.2338 33.207 45.9233 33.1836 45.5053 33.1836H44.9604ZM44.9604 36.8457V39.2598C44.9604 39.5527 44.9799 39.7891 45.019 39.9688C45.062 40.1484 45.1303 40.3008 45.2241 40.4258C45.4233 40.6875 45.7651 40.8184 46.2495 40.8184C46.8784 40.8184 47.3745 40.6465 47.7377 40.3027C48.1049 39.959 48.2885 39.4902 48.2885 38.8965C48.2885 38.5566 48.2319 38.2422 48.1186 37.9531C48.0053 37.6602 47.853 37.4355 47.6616 37.2793C47.31 36.9902 46.7592 36.8457 46.0092 36.8457H44.9604ZM57.7798 33.002L57.8794 34.9355L57.7446 34.9414C57.6938 34.6133 57.6098 34.3418 57.4927 34.127C57.3755 33.9121 57.2055 33.7227 56.9829 33.5586C56.7993 33.4219 56.5825 33.3262 56.3325 33.2715C56.0825 33.2129 55.7505 33.1836 55.3364 33.1836H53.9946V36.6992H54.3462C54.7016 36.6992 54.9692 36.6758 55.1489 36.6289C55.3286 36.582 55.4751 36.498 55.5884 36.377C55.6977 36.2637 55.7778 36.1309 55.8286 35.9785C55.8833 35.8223 55.9282 35.5938 55.9634 35.293L56.0981 35.2988L56.0747 38.4395H55.9399C55.9048 38.1387 55.852 37.8965 55.7817 37.7129C55.7153 37.5293 55.6216 37.373 55.5005 37.2441C55.3833 37.1191 55.2309 37.0273 55.0434 36.9688C54.8559 36.9102 54.6177 36.8809 54.3286 36.8809H53.9946V38.2227C53.9946 38.7578 54.0083 39.1484 54.0356 39.3945C54.063 39.6367 54.1157 39.8398 54.1938 40.0039C54.3266 40.2852 54.5278 40.4922 54.7973 40.625C55.0708 40.7539 55.4302 40.8184 55.8755 40.8184C56.3442 40.8184 56.7368 40.7598 57.0532 40.6426C57.3696 40.5215 57.6274 40.3359 57.8266 40.0859C57.9673 39.918 58.0805 39.7266 58.1665 39.5117C58.2563 39.2969 58.3384 39.0137 58.4126 38.6621L58.5473 38.668L58.4712 41H51.4809V40.8652C51.7036 40.8535 51.8833 40.8223 52.02 40.7715C52.1606 40.7207 52.2856 40.6387 52.395 40.5254C52.5161 40.4004 52.5981 40.2422 52.6411 40.0508C52.688 39.8555 52.7114 39.5586 52.7114 39.1602V34.8418C52.7114 34.4434 52.688 34.1484 52.6411 33.957C52.5981 33.7617 52.5161 33.6016 52.395 33.4766C52.2895 33.3633 52.1665 33.2812 52.0259 33.2305C51.8891 33.1797 51.7075 33.1484 51.4809 33.1367V33.002H57.7798ZM62.4312 37.0859V39.1602C62.4312 39.5586 62.4527 39.8555 62.4956 40.0508C62.5425 40.2422 62.6265 40.4004 62.7476 40.5254C62.853 40.6348 62.9741 40.7168 63.1109 40.7715C63.2515 40.8223 63.4351 40.8535 63.6616 40.8652V41H59.9175V40.8652C60.1441 40.8535 60.3257 40.8223 60.4624 40.7715C60.603 40.7168 60.7261 40.6348 60.8316 40.5254C60.9566 40.4004 61.0405 40.2422 61.0835 40.0508C61.1265 39.8594 61.148 39.5625 61.148 39.1602V34.8418C61.148 34.4395 61.1265 34.1426 61.0835 33.9512C61.0405 33.7598 60.9566 33.6016 60.8316 33.4766C60.7261 33.3633 60.603 33.2812 60.4624 33.2305C60.3218 33.1797 60.1402 33.1484 59.9175 33.1367V33.002H62.7417C63.2144 33.002 63.5249 33.0039 63.6734 33.0078C64.2788 33.0352 64.7534 33.1172 65.0972 33.2539C65.4839 33.4102 65.7827 33.6445 65.9937 33.957C66.2085 34.2656 66.3159 34.625 66.3159 35.0352C66.3159 35.6445 66.0855 36.1328 65.6245 36.5C65.4839 36.6094 65.3277 36.6992 65.1558 36.7695C64.9878 36.8398 64.7612 36.9062 64.4761 36.9688C64.7105 37.0664 64.8843 37.168 64.9976 37.2734C65.0874 37.3555 65.1695 37.459 65.2437 37.584C65.3179 37.7051 65.4292 37.9219 65.5777 38.2344C65.9253 38.9492 66.187 39.4727 66.3628 39.8047C66.5425 40.1328 66.6929 40.3711 66.814 40.5195C66.9116 40.6406 67.0054 40.7246 67.0952 40.7715C67.189 40.8184 67.3159 40.8496 67.4761 40.8652V41H65.5308C65.4331 40.7852 65.3706 40.6484 65.3433 40.5898L64.9331 39.6582C64.687 39.0996 64.439 38.6055 64.189 38.1758C63.939 37.75 63.7105 37.459 63.5034 37.3027C63.398 37.2246 63.2847 37.1699 63.1636 37.1387C63.0425 37.1035 62.8941 37.0859 62.7183 37.0859H62.4312ZM62.4312 36.957H62.6538C63.1382 36.957 63.4839 36.9297 63.6909 36.875C63.9019 36.8203 64.0991 36.707 64.2827 36.5352C64.6929 36.1445 64.898 35.6602 64.898 35.082C64.898 34.7734 64.8374 34.4844 64.7163 34.2148C64.5991 33.9414 64.4351 33.7168 64.2241 33.541C64.0601 33.4082 63.8648 33.3164 63.6382 33.2656C63.4116 33.2109 63.0894 33.1836 62.6714 33.1836H62.4312V36.957ZM68.647 41V40.8594C69.0416 40.8594 69.3463 40.748 69.5611 40.5254C69.6822 40.4004 69.7642 40.2422 69.8072 40.0508C69.8541 39.8555 69.8775 39.5586 69.8775 39.1602V34.8418C69.8775 34.4277 69.8521 34.123 69.8013 33.9277C69.7545 33.7285 69.6646 33.5664 69.5318 33.4414C69.4224 33.3398 69.2994 33.2656 69.1627 33.2188C69.0298 33.1719 68.858 33.1445 68.647 33.1367V33.002H72.3912V33.1367C72.1763 33.1484 72.0005 33.1777 71.8638 33.2246C71.7271 33.2715 71.606 33.3457 71.5005 33.4473C71.3677 33.5762 71.2779 33.7383 71.231 33.9336C71.1841 34.1289 71.1607 34.4316 71.1607 34.8418V38.2227C71.1607 38.7422 71.1744 39.1289 71.2017 39.3828C71.2291 39.6367 71.2818 39.8438 71.3599 40.0039C71.4966 40.2852 71.6998 40.4922 71.9693 40.625C72.2388 40.7539 72.5963 40.8184 73.0416 40.8184C73.5064 40.8184 73.897 40.7578 74.2134 40.6367C74.5338 40.5117 74.7955 40.3203 74.9986 40.0625C75.1353 39.8867 75.2466 39.6875 75.3326 39.4648C75.4224 39.2422 75.5045 38.9492 75.5787 38.5859L75.7193 38.5977L75.6431 41H68.647ZM83.2301 33.002L83.3297 34.9355L83.1949 34.9414C83.1441 34.6133 83.0602 34.3418 82.943 34.127C82.8258 33.9121 82.6559 33.7227 82.4332 33.5586C82.2496 33.4219 82.0328 33.3262 81.7828 33.2715C81.5328 33.2129 81.2008 33.1836 80.7867 33.1836H79.4449V36.6992H79.7965C80.152 36.6992 80.4195 36.6758 80.5992 36.6289C80.7789 36.582 80.9254 36.498 81.0387 36.377C81.148 36.2637 81.2281 36.1309 81.2789 35.9785C81.3336 35.8223 81.3785 35.5938 81.4137 35.293L81.5484 35.2988L81.525 38.4395H81.3902C81.3551 38.1387 81.3023 37.8965 81.232 37.7129C81.1656 37.5293 81.0719 37.373 80.9508 37.2441C80.8336 37.1191 80.6813 37.0273 80.4938 36.9688C80.3063 36.9102 80.068 36.8809 79.7789 36.8809H79.4449V38.2227C79.4449 38.7578 79.4586 39.1484 79.4859 39.3945C79.5133 39.6367 79.566 39.8398 79.6441 40.0039C79.777 40.2852 79.9781 40.4922 80.2477 40.625C80.5211 40.7539 80.8805 40.8184 81.3258 40.8184C81.7945 40.8184 82.1871 40.7598 82.5035 40.6426C82.8199 40.5215 83.0777 40.3359 83.277 40.0859C83.4176 39.918 83.5309 39.7266 83.6168 39.5117C83.7066 39.2969 83.7887 39.0137 83.8629 38.6621L83.9977 38.668L83.9215 41H76.9313V40.8652C77.1539 40.8535 77.3336 40.8223 77.4703 40.7715C77.6109 40.7207 77.7359 40.6387 77.8453 40.5254C77.9664 40.4004 78.0484 40.2422 78.0914 40.0508C78.1383 39.8555 78.1617 39.5586 78.1617 39.1602V34.8418C78.1617 34.4434 78.1383 34.1484 78.0914 33.957C78.0484 33.7617 77.9664 33.6016 77.8453 33.4766C77.7398 33.3633 77.6168 33.2812 77.4762 33.2305C77.3395 33.1797 77.1578 33.1484 76.9313 33.1367V33.002H83.2301ZM23.8744 56.9824L23.892 54.5625H24.0267C24.1908 55.1797 24.3861 55.666 24.6127 56.0215C25.0384 56.6777 25.5736 57.0059 26.2181 57.0059C26.6673 57.0059 27.0384 56.8555 27.3314 56.5547C27.6244 56.2539 27.7709 55.873 27.7709 55.4121C27.7709 55.2129 27.7377 55.0098 27.6712 54.8027C27.6087 54.5957 27.5228 54.418 27.4134 54.2695C27.3002 54.1172 27.14 53.9707 26.933 53.8301C26.7298 53.6895 26.4173 53.5117 25.9955 53.2969C25.6244 53.1094 25.3392 52.9512 25.14 52.8223C24.9447 52.6934 24.7865 52.5625 24.6654 52.4297C24.3295 52.0625 24.1615 51.6152 24.1615 51.0879C24.1615 50.7637 24.2259 50.4512 24.3548 50.1504C24.4877 49.8496 24.6712 49.5918 24.9056 49.377C25.3197 48.9941 25.8099 48.8027 26.3763 48.8027C26.5599 48.8027 26.7298 48.8223 26.8861 48.8613C27.0423 48.8965 27.2513 48.9688 27.513 49.0781C27.7084 49.1562 27.8412 49.207 27.9115 49.2305C27.9818 49.25 28.0443 49.2598 28.099 49.2598C28.2357 49.2598 28.3275 49.1602 28.3744 48.9609H28.5091L28.5502 51.2871H28.4154C28.3099 50.916 28.2181 50.6328 28.14 50.4375C28.0658 50.2383 27.9759 50.0547 27.8705 49.8867C27.6791 49.582 27.4681 49.3574 27.2377 49.2129C27.0072 49.0645 26.7416 48.9902 26.4408 48.9902C26.0033 48.9902 25.6576 49.1387 25.4037 49.4355C25.2982 49.5566 25.2142 49.6992 25.1517 49.8633C25.0931 50.0273 25.0638 50.1914 25.0638 50.3555C25.0638 51.0078 25.4837 51.5332 26.3236 51.9316L27.1498 52.3301C27.7865 52.6309 28.2455 52.9629 28.5267 53.3262C28.847 53.7324 29.0072 54.2051 29.0072 54.7441C29.0072 55.1035 28.9349 55.4473 28.7904 55.7754C28.5873 56.2324 28.2826 56.5859 27.8763 56.8359C27.4701 57.082 26.9916 57.2051 26.4408 57.2051C25.9369 57.2051 25.4525 57.1055 24.9877 56.9062C24.7455 56.8008 24.6009 56.7402 24.5541 56.7246C24.5072 56.709 24.4545 56.7012 24.3959 56.7012C24.2084 56.7012 24.0795 56.7949 24.0091 56.9824H23.8744ZM31.0336 53.0566C31.0336 52.4004 31.1742 51.793 31.4555 51.2344C31.7367 50.6719 32.1469 50.1816 32.6859 49.7637C33.0883 49.4551 33.5219 49.2188 33.9867 49.0547C34.4516 48.8867 34.9203 48.8027 35.393 48.8027C35.9945 48.8027 36.5766 48.9355 37.1391 49.2012C37.7016 49.4629 38.1937 49.834 38.6156 50.3145C39.3031 51.0957 39.6469 51.9844 39.6469 52.9805C39.6469 53.4805 39.557 53.9629 39.3773 54.4277C39.1977 54.8926 38.9359 55.3164 38.5922 55.6992C38.1703 56.1758 37.6703 56.5449 37.0922 56.8066C36.518 57.0684 35.9164 57.1992 35.2875 57.1992C34.6664 57.1992 34.0727 57.0723 33.5062 56.8184C32.9398 56.5645 32.4516 56.2051 32.0414 55.7402C31.7172 55.377 31.4672 54.9648 31.2914 54.5039C31.1195 54.0391 31.0336 53.5566 31.0336 53.0566ZM32.4516 53.1445C32.4516 54.2773 32.7602 55.2324 33.3773 56.0098C33.6547 56.3574 33.9477 56.6113 34.2562 56.7715C34.5687 56.9277 34.9281 57.0059 35.3344 57.0059C35.7445 57.0059 36.1039 56.9277 36.4125 56.7715C36.725 56.6152 37.0219 56.3613 37.3031 56.0098C37.9203 55.2285 38.2289 54.2656 38.2289 53.1211C38.2289 52.4922 38.143 51.8984 37.9711 51.3398C37.8031 50.7773 37.5648 50.3008 37.2562 49.9102C37.0062 49.5898 36.727 49.3574 36.4184 49.2129C36.1137 49.0645 35.7523 48.9902 35.3344 48.9902C34.9203 48.9902 34.5609 49.0625 34.2562 49.207C33.9555 49.3516 33.6762 49.5859 33.4184 49.9102C33.1098 50.2969 32.8715 50.7715 32.7035 51.334C32.5355 51.8965 32.4516 52.5 32.4516 53.1445ZM41.4565 57V56.8594C41.851 56.8594 42.1557 56.748 42.3705 56.5254C42.4916 56.4004 42.5737 56.2422 42.6166 56.0508C42.6635 55.8555 42.687 55.5586 42.687 55.1602V50.8418C42.687 50.4277 42.6616 50.123 42.6108 49.9277C42.5639 49.7285 42.4741 49.5664 42.3412 49.4414C42.2319 49.3398 42.1088 49.2656 41.9721 49.2188C41.8393 49.1719 41.6674 49.1445 41.4565 49.1367V49.002H45.2006V49.1367C44.9858 49.1484 44.81 49.1777 44.6733 49.2246C44.5366 49.2715 44.4155 49.3457 44.31 49.4473C44.1772 49.5762 44.0873 49.7383 44.0405 49.9336C43.9936 50.1289 43.9702 50.4316 43.9702 50.8418V54.2227C43.9702 54.7422 43.9838 55.1289 44.0112 55.3828C44.0385 55.6367 44.0912 55.8438 44.1694 56.0039C44.3061 56.2852 44.5092 56.4922 44.7787 56.625C45.0483 56.7539 45.4057 56.8184 45.851 56.8184C46.3159 56.8184 46.7065 56.7578 47.0229 56.6367C47.3432 56.5117 47.6049 56.3203 47.808 56.0625C47.9448 55.8867 48.0561 55.6875 48.142 55.4648C48.2319 55.2422 48.3139 54.9492 48.3881 54.5859L48.5287 54.5977L48.4526 57H41.4565ZM53.4028 49.002V49.1367C53.1802 49.1484 52.9985 49.1797 52.8579 49.2305C52.7173 49.2812 52.5942 49.3633 52.4887 49.4766C52.3598 49.6094 52.2739 49.7734 52.2309 49.9688C52.1919 50.1641 52.1723 50.5 52.1723 50.9766V54.293C52.1723 54.832 52.1919 55.2227 52.2309 55.4648C52.2739 55.7031 52.3579 55.9238 52.4829 56.127C52.6704 56.4355 52.9009 56.6602 53.1743 56.8008C53.4516 56.9375 53.7993 57.0059 54.2173 57.0059C54.6235 57.0059 55.0102 56.9453 55.3774 56.8242C55.7485 56.6992 56.0571 56.5273 56.3032 56.3086C56.4555 56.1719 56.5669 56.0234 56.6372 55.8633C56.7114 55.7031 56.7602 55.5 56.7837 55.2539C56.7993 55.0938 56.8071 54.7148 56.8071 54.1172V50.8418C56.8071 50.4395 56.7837 50.1426 56.7368 49.9512C56.6938 49.7598 56.6118 49.6016 56.4907 49.4766C56.3813 49.3633 56.2563 49.2812 56.1157 49.2305C55.979 49.1797 55.7993 49.1484 55.5766 49.1367V49.002H58.2778V49.1367C58.0552 49.1484 57.8735 49.1797 57.7329 49.2305C57.5962 49.2812 57.4731 49.3633 57.3637 49.4766C57.2427 49.6016 57.1587 49.7617 57.1118 49.957C57.0688 50.1484 57.0473 50.4434 57.0473 50.8418V54.5391C57.0473 55.0859 57.0044 55.4902 56.9184 55.752C56.8364 56.0098 56.6704 56.2461 56.4204 56.4609C55.8501 56.9531 55.0356 57.1992 53.977 57.1992C52.8716 57.1992 52.0571 56.9668 51.5337 56.502C51.1938 56.2051 50.9907 55.8145 50.9243 55.3301C50.9009 55.1582 50.8891 54.8477 50.8891 54.3984V50.8418C50.8891 50.4395 50.8677 50.1426 50.8247 49.9512C50.7817 49.7598 50.6977 49.6016 50.5727 49.4766C50.4673 49.3633 50.3442 49.2812 50.2036 49.2305C50.0669 49.1797 49.8852 49.1484 49.6587 49.1367V49.002H53.4028ZM62.8999 49.1836C62.6538 49.1836 62.3902 49.1914 62.1089 49.207C61.5073 49.2383 61.0581 49.3145 60.7612 49.4355C60.4683 49.5566 60.2261 49.7656 60.0347 50.0625C59.8589 50.3359 59.7241 50.707 59.6304 51.1758L59.4956 51.1641L59.6011 49.002H67.5288L67.6343 51.1641L67.4995 51.1758C67.3941 50.6328 67.228 50.2227 67.0015 49.9453C66.7788 49.6641 66.4527 49.4629 66.023 49.3418C65.6597 49.2363 65.0445 49.1836 64.1773 49.1836V55.1602C64.1773 55.5586 64.1987 55.8555 64.2417 56.0508C64.2886 56.2422 64.3726 56.4004 64.4937 56.5254C64.603 56.6387 64.7261 56.7207 64.8628 56.7715C65.0034 56.8223 65.1851 56.8535 65.4077 56.8652V57H61.6636V56.8652C61.8902 56.8535 62.0718 56.8223 62.2085 56.7715C62.3491 56.7207 62.4741 56.6387 62.5835 56.5254C62.7046 56.4004 62.7866 56.2422 62.8296 56.0508C62.8765 55.8594 62.8999 55.5625 62.8999 55.1602V49.1836ZM72.6783 49.002V49.1367C72.4556 49.1484 72.274 49.1797 72.1334 49.2305C71.9966 49.2812 71.8736 49.3633 71.7642 49.4766C71.6119 49.6328 71.5181 49.8496 71.483 50.127C71.4595 50.334 71.4478 50.5723 71.4478 50.8418V55.1602C71.4478 55.4844 71.4634 55.7402 71.4947 55.9277C71.5259 56.1152 71.5767 56.2656 71.647 56.3789C71.7486 56.5352 71.8795 56.6523 72.0396 56.7305C72.1998 56.8047 72.4127 56.8496 72.6783 56.8652V57H68.9341V56.8652C69.1607 56.8535 69.3423 56.8223 69.4791 56.7715C69.6197 56.7168 69.7427 56.6348 69.8482 56.5254C69.9732 56.4004 70.0572 56.2422 70.1002 56.0508C70.1431 55.8594 70.1646 55.5625 70.1646 55.1602V50.8418C70.1646 50.4395 70.1431 50.1426 70.1002 49.9512C70.0572 49.7598 69.9732 49.6016 69.8482 49.4766C69.7427 49.3633 69.6197 49.2812 69.4791 49.2305C69.3384 49.1797 69.1568 49.1484 68.9341 49.1367V49.002H72.6783ZM74.4937 53.0566C74.4937 52.4004 74.6344 51.793 74.9156 51.2344C75.1969 50.6719 75.607 50.1816 76.1461 49.7637C76.5484 49.4551 76.982 49.2188 77.4469 49.0547C77.9117 48.8867 78.3805 48.8027 78.8531 48.8027C79.4547 48.8027 80.0367 48.9355 80.5992 49.2012C81.1617 49.4629 81.6539 49.834 82.0758 50.3145C82.7633 51.0957 83.107 51.9844 83.107 52.9805C83.107 53.4805 83.0172 53.9629 82.8375 54.4277C82.6578 54.8926 82.3961 55.3164 82.0523 55.6992C81.6305 56.1758 81.1305 56.5449 80.5523 56.8066C79.9781 57.0684 79.3766 57.1992 78.7477 57.1992C78.1266 57.1992 77.5328 57.0723 76.9664 56.8184C76.4 56.5645 75.9117 56.2051 75.5016 55.7402C75.1773 55.377 74.9273 54.9648 74.7516 54.5039C74.5797 54.0391 74.4937 53.5566 74.4937 53.0566ZM75.9117 53.1445C75.9117 54.2773 76.2203 55.2324 76.8375 56.0098C77.1148 56.3574 77.4078 56.6113 77.7164 56.7715C78.0289 56.9277 78.3883 57.0059 78.7945 57.0059C79.2047 57.0059 79.5641 56.9277 79.8727 56.7715C80.1852 56.6152 80.482 56.3613 80.7633 56.0098C81.3805 55.2285 81.6891 54.2656 81.6891 53.1211C81.6891 52.4922 81.6031 51.8984 81.4312 51.3398C81.2633 50.7773 81.025 50.3008 80.7164 49.9102C80.4664 49.5898 80.1871 49.3574 79.8785 49.2129C79.5738 49.0645 79.2125 48.9902 78.7945 48.9902C78.3805 48.9902 78.0211 49.0625 77.7164 49.207C77.4156 49.3516 77.1363 49.5859 76.8785 49.9102C76.5699 50.2969 76.3316 50.7715 76.1637 51.334C75.9957 51.8965 75.9117 52.5 75.9117 53.1445ZM86.3873 50.0625V55.1602C86.3873 55.5625 86.4088 55.8594 86.4518 56.0508C86.4987 56.2422 86.5827 56.4004 86.7038 56.5254C86.8131 56.6387 86.9362 56.7207 87.0729 56.7715C87.2135 56.8223 87.3952 56.8535 87.6178 56.8652V57H84.9166V56.8652C85.1393 56.8535 85.319 56.8223 85.4557 56.7715C85.5963 56.7207 85.7213 56.6387 85.8307 56.5254C85.9518 56.4004 86.0338 56.2422 86.0768 56.0508C86.1237 55.8555 86.1471 55.5586 86.1471 55.1602V50.8359C86.1471 50.4414 86.1237 50.1484 86.0768 49.957C86.0338 49.7617 85.9518 49.6016 85.8307 49.4766C85.7252 49.3633 85.6022 49.2812 85.4616 49.2305C85.3248 49.1797 85.1432 49.1484 84.9166 49.1367V49.002H87.1725L91.9303 55.0723V50.8418C91.9303 50.4395 91.9069 50.1426 91.86 49.9512C91.817 49.7598 91.735 49.6016 91.6139 49.4766C91.5045 49.3633 91.3795 49.2812 91.2389 49.2305C91.1022 49.1797 90.9225 49.1484 90.6998 49.1367V49.002H93.401V49.1367C93.0104 49.1367 92.7057 49.25 92.487 49.4766C92.3659 49.6016 92.2819 49.7617 92.235 49.957C92.192 50.1484 92.1705 50.4414 92.1705 50.8359V57H91.9069L86.3873 50.0625Z" fill="white"/>
</g>
<defs>
<clipPath id="clip0_1319_7817">
<rect width="116" height="146" fill="white"/>
</clipPath>
</defs>
</svg>
