<svg width="52" height="52" viewBox="0 0 52 52" fill="none" xmlns="http://www.w3.org/2000/svg">
<path fill-rule="evenodd" clip-rule="evenodd" d="M22.8111 4.94683C23.7845 4.39876 24.8828 4.11084 26 4.11084C27.1171 4.11084 28.2154 4.39876 29.1889 4.94683C30.1623 5.4949 30.9781 6.2846 31.5575 7.23976L31.5637 7.25005L49.9153 37.8867L49.9329 37.9167C50.5005 38.8995 50.8008 40.0139 50.804 41.1488C50.8072 42.2838 50.5131 43.3998 49.9511 44.3859C49.389 45.3719 48.5786 46.1936 47.6004 46.7692C46.6222 47.3448 45.5104 47.6542 44.3754 47.6667L44.3516 47.6669L7.62448 47.6668C6.48957 47.6543 5.37772 47.3448 4.39953 46.7692C3.42134 46.1936 2.61091 45.3719 2.04887 44.3859C1.48683 43.3998 1.19277 42.2838 1.19595 41.1488C1.19913 40.0139 1.49943 38.8995 2.06698 37.9167L2.08458 37.8867L20.4424 7.23974C21.0218 6.28459 21.8376 5.4949 22.8111 4.94683ZM26 8.44417C25.6276 8.44417 25.2615 8.54015 24.937 8.72284C24.614 8.9047 24.343 9.16638 24.1501 9.48283L5.81245 40.0961C5.6279 40.4206 5.53031 40.7875 5.52926 41.161C5.52821 41.5393 5.62622 41.9113 5.81357 42.24C6.00092 42.5687 6.27106 42.8426 6.59713 43.0344C6.92034 43.2246 7.28732 43.3276 7.66216 43.3335H44.3378C44.7126 43.3276 45.0796 43.2246 45.4028 43.0344C45.7289 42.8426 45.999 42.5687 46.1864 42.24C46.3737 41.9113 46.4717 41.5393 46.4707 41.161C46.4696 40.7875 46.3721 40.4207 46.1875 40.0962L27.8525 9.48715C27.8516 9.48571 27.8507 9.48427 27.8498 9.48283C27.6569 9.16638 27.3859 8.9047 27.0629 8.72284C26.7384 8.54015 26.3723 8.44417 26 8.44417Z" fill="white"/>
<path fill-rule="evenodd" clip-rule="evenodd" d="M26 17.3335C27.1967 17.3335 28.1667 18.3035 28.1667 19.5002V28.1668C28.1667 29.3634 27.1967 30.3335 26 30.3335C24.8034 30.3335 23.8334 29.3634 23.8334 28.1668V19.5002C23.8334 18.3035 24.8034 17.3335 26 17.3335Z" fill="white"/>
<path fill-rule="evenodd" clip-rule="evenodd" d="M23.8334 36.8332C23.8334 35.6366 24.8034 34.6665 26 34.6665H26.0217C27.2183 34.6665 28.1884 35.6366 28.1884 36.8332C28.1884 38.0298 27.2183 38.9998 26.0217 38.9998H26C24.8034 38.9998 23.8334 38.0298 23.8334 36.8332Z" fill="white"/>
</svg>
