<svg width="22" height="16" viewBox="0 0 22 16" fill="none" xmlns="http://www.w3.org/2000/svg">
<path d="M10.08 11.22C10.08 13.86 8.28 15.72 5.64 15.72C2.82 15.72 0.78 13.44 0.78 9.84C0.78 4.8 4.14 0.899999 8.94 0.299996V3.18C6.36 3.66 4.56 5.28 4.56 7.38C5.04 7.2 5.58 7.08 6.24 7.08C8.4 7.08 10.08 8.64 10.08 11.22ZM21.96 11.22C21.96 13.86 20.16 15.72 17.52 15.72C14.7 15.72 12.66 13.44 12.66 9.84C12.66 4.8 16.02 0.899999 20.82 0.299996V3.18C18.24 3.66 16.38 5.28 16.38 7.44C16.86 7.2 17.4 7.08 18.06 7.08C20.22 7.08 21.96 8.64 21.96 11.22Z" fill="#121212" fill-opacity="0.8"/>
</svg>
