<svg width="56" height="56" viewBox="0 0 56 56" fill="none" xmlns="http://www.w3.org/2000/svg">
<path fill-rule="evenodd" clip-rule="evenodd" d="M7 16.3333C6.38116 16.3333 5.78767 16.5791 5.35008 17.0167C4.9125 17.4543 4.66667 18.0478 4.66667 18.6666V37.3333C4.66667 37.9521 4.9125 38.5456 5.35008 38.9832C5.78767 39.4208 6.38116 39.6666 7 39.6666H11.6667C12.9553 39.6666 14 40.7113 14 42C14 43.2886 12.9553 44.3333 11.6667 44.3333H7C5.14348 44.3333 3.36301 43.5958 2.05025 42.283C0.737498 40.9703 0 39.1898 0 37.3333V18.6666C0 16.8101 0.737498 15.0296 2.05025 13.7169C3.36301 12.4041 5.14349 11.6666 7 11.6666H14.4433C15.732 11.6666 16.7767 12.7113 16.7767 14C16.7767 15.2886 15.732 16.3333 14.4433 16.3333H7ZM32.6667 14C32.6667 12.7113 33.7113 11.6666 35 11.6666H39.6667C41.5232 11.6666 43.3037 12.4041 44.6164 13.7169C45.9292 15.0296 46.6667 16.8101 46.6667 18.6666V37.3333C46.6667 39.1898 45.9292 40.9703 44.6164 42.283C43.3037 43.5958 41.5232 44.3333 39.6667 44.3333H32.2233C30.9347 44.3333 29.89 43.2886 29.89 42C29.89 40.7113 30.9347 39.6666 32.2233 39.6666H39.6667C40.2855 39.6666 40.879 39.4208 41.3166 38.9832C41.7542 38.5456 42 37.9521 42 37.3333V18.6666C42 18.0478 41.7542 17.4543 41.3166 17.0167C40.879 16.5791 40.2855 16.3333 39.6667 16.3333H35C33.7113 16.3333 32.6667 15.2886 32.6667 14Z" fill="#006298"/>
<path fill-rule="evenodd" clip-rule="evenodd" d="M53.6666 23.3334C54.9552 23.3334 55.9999 24.378 55.9999 25.6667V30.3334C55.9999 31.622 54.9552 32.6667 53.6666 32.6667C52.3779 32.6667 51.3333 31.622 51.3333 30.3334V25.6667C51.3333 24.378 52.3779 23.3334 53.6666 23.3334Z" fill="#006298"/>
<path fill-rule="evenodd" clip-rule="evenodd" d="M26.961 12.0585C28.0332 12.7733 28.3229 14.222 27.6081 15.2943L20.6932 25.6666H30.3333C31.1939 25.6666 31.9845 26.1403 32.3906 26.899C32.7966 27.6577 32.7521 28.5783 32.2748 29.2943L22.9415 43.2943C22.2266 44.3665 20.7779 44.6562 19.7057 43.9414C18.6335 43.2266 18.3437 41.7779 19.0586 40.7057L25.9735 30.3333H16.3333C15.4728 30.3333 14.6821 29.8597 14.2761 29.101C13.8701 28.3423 13.9146 27.4217 14.3919 26.7057L23.7252 12.7057C24.44 11.6334 25.8887 11.3437 26.961 12.0585Z" fill="#006298"/>
</svg>
