<svg width="56" height="56" viewBox="0 0 56 56" fill="none" xmlns="http://www.w3.org/2000/svg">
<path fill-rule="evenodd" clip-rule="evenodd" d="M36.5469 8.80464C32.4105 6.96154 27.7891 6.50495 23.3719 7.50294C18.9548 8.50094 14.9786 10.9001 12.0363 14.3425C9.09406 17.7849 7.3434 22.0862 7.04544 26.6049C6.74748 31.1236 7.91818 35.6175 10.3829 39.4165C12.8477 43.2154 16.4745 46.1159 20.7223 47.6853C24.9702 49.2546 29.6115 49.4088 33.9542 48.1248C38.2968 46.8408 42.1081 44.1875 44.8195 40.5605C47.531 36.9335 48.9973 32.5271 48.9999 27.9986V25.8533C48.9999 24.5646 50.0446 23.52 51.3333 23.52C52.6219 23.52 53.6666 24.5646 53.6666 25.8533V28C53.6634 33.5348 51.8712 38.9216 48.5572 43.3547C45.2432 47.7877 40.585 51.0307 35.2773 52.6C29.9697 54.1693 24.2969 53.9808 19.1051 52.0627C13.9132 50.1446 9.48053 46.5996 6.46805 41.9564C3.45557 37.3133 2.02472 31.8207 2.38889 26.2978C2.75306 20.775 4.89275 15.5179 8.48884 11.3105C12.0849 7.10304 16.9447 4.17079 22.3435 2.95101C27.7422 1.73124 33.3906 2.2893 38.4463 4.54197C39.6234 5.06646 40.1524 6.44587 39.6279 7.62297C39.1034 8.80007 37.724 9.32912 36.5469 8.80464Z" fill="#006298"/>
<path fill-rule="evenodd" clip-rule="evenodd" d="M52.9825 7.68259C53.8942 8.59336 53.8949 10.0707 52.9842 10.9824L29.6508 34.3391C29.2133 34.777 28.6197 35.0232 28.0007 35.0233C27.3816 35.0235 26.7879 34.7776 26.3502 34.3399L19.3502 27.3399C18.4389 26.4287 18.4389 24.9513 19.3502 24.0401C20.2614 23.1289 21.7388 23.1289 22.65 24.0401L27.9993 29.3893L49.6827 7.68424C50.5934 6.77256 52.0708 6.77183 52.9825 7.68259Z" fill="#006298"/>
</svg>
