<svg width="52" height="52" viewBox="0 0 52 52" fill="none" xmlns="http://www.w3.org/2000/svg">
<path fill-rule="evenodd" clip-rule="evenodd" d="M26 6.49984C15.2304 6.49984 6.49996 15.2303 6.49996 25.9998C6.49996 36.7694 15.2304 45.4998 26 45.4998C36.7695 45.4998 45.5 36.7694 45.5 25.9998C45.5 15.2303 36.7695 6.49984 26 6.49984ZM2.16663 25.9998C2.16663 12.8371 12.8372 2.1665 26 2.1665C39.1627 2.1665 49.8333 12.8371 49.8333 25.9998C49.8333 39.1626 39.1627 49.8332 26 49.8332C12.8372 49.8332 2.16663 39.1626 2.16663 25.9998Z" fill="white"/>
<path fill-rule="evenodd" clip-rule="evenodd" d="M26 10.8335C27.1967 10.8335 28.1667 11.8035 28.1667 13.0002V24.6611L35.6357 28.3956C36.706 28.9307 37.1398 30.2322 36.6046 31.3025C36.0695 32.3727 34.768 32.8066 33.6977 32.2714L25.0311 27.9381C24.297 27.5711 23.8334 26.8208 23.8334 26.0002V13.0002C23.8334 11.8035 24.8034 10.8335 26 10.8335Z" fill="white"/>
</svg>
