<svg width="56" height="57" viewBox="0 0 56 57" fill="none" xmlns="http://www.w3.org/2000/svg">
<path fill-rule="evenodd" clip-rule="evenodd" d="M4.38326 9.76265C5.69602 8.4499 7.47649 7.7124 9.33301 7.7124H25.6663C26.955 7.7124 27.9997 8.75707 27.9997 10.0457C27.9997 11.3344 26.955 12.3791 25.6663 12.3791H9.33301C8.71417 12.3791 8.12068 12.6249 7.68309 13.0625C7.24551 13.5001 6.99967 14.0936 6.99967 14.7124V47.3791C6.99967 47.9979 7.24551 48.5914 7.68309 49.029C8.12068 49.4666 8.71417 49.7124 9.33301 49.7124H41.9997C42.6185 49.7124 43.212 49.4666 43.6496 49.029C44.0872 48.5914 44.333 47.9979 44.333 47.3791V31.0457C44.333 29.7571 45.3777 28.7124 46.6663 28.7124C47.955 28.7124 48.9997 29.7571 48.9997 31.0457V47.3791C48.9997 49.2356 48.2622 51.0161 46.9494 52.3288C45.6367 53.6416 43.8562 54.3791 41.9997 54.3791H9.33301C7.47649 54.3791 5.69601 53.6416 4.38326 52.3288C3.07051 51.0161 2.33301 49.2356 2.33301 47.3791V14.7124C2.33301 12.8559 3.07051 11.0754 4.38326 9.76265Z" fill="#006298"/>
<path fill-rule="evenodd" clip-rule="evenodd" d="M46.6664 7.42936C45.9725 7.42936 45.307 7.70502 44.8163 8.19569L23.1066 29.9054L21.8733 34.8389L26.8068 33.6055L48.5165 11.8959C49.0071 11.4052 49.2828 10.7397 49.2828 10.0458C49.2828 9.35186 49.0071 8.68637 48.5165 8.19569C48.0258 7.70502 47.3603 7.42936 46.6664 7.42936ZM41.5165 4.89586C42.8823 3.53002 44.7348 2.7627 46.6664 2.7627C48.598 2.7627 50.4505 3.53002 51.8163 4.89586C53.1821 6.2617 53.9495 8.11418 53.9495 10.0458C53.9495 11.9774 53.1821 13.8298 51.8163 15.1957L29.6496 37.3624C29.3506 37.6614 28.9759 37.8735 28.5656 37.9761L19.2323 40.3094C18.4372 40.5082 17.596 40.2752 17.0165 39.6957C16.4369 39.1161 16.2039 38.275 16.4027 37.4799L18.7361 28.1465C18.8386 27.7362 19.0508 27.3616 19.3498 27.0625L41.5165 4.89586Z" fill="#006298"/>
</svg>
