<svg width="56" height="57" viewBox="0 0 56 57" fill="none" xmlns="http://www.w3.org/2000/svg">
<path fill-rule="evenodd" clip-rule="evenodd" d="M4.99506 28.7124C5.25008 29.1531 5.58815 29.7147 6.00697 30.3632C7.08268 32.0288 8.67572 34.2438 10.7439 36.4499C14.9229 40.9074 20.7655 45.0457 28 45.0457C35.2345 45.0457 41.0771 40.9074 45.2561 36.4499C47.3243 34.2438 48.9173 32.0288 49.993 30.3632C50.4118 29.7147 50.7499 29.1531 51.0049 28.7124C50.7499 28.2717 50.4118 27.7101 49.993 27.0616C48.9173 25.396 47.3243 23.181 45.2561 20.9749C41.0771 16.5174 35.2345 12.3791 28 12.3791C20.7655 12.3791 14.9229 16.5174 10.7439 20.9749C8.67572 23.181 7.08268 25.396 6.00697 27.0616C5.58815 27.7101 5.25008 28.2717 4.99506 28.7124ZM53.6667 28.7124C55.7537 27.6689 55.7533 27.6681 55.7528 27.6673L55.7491 27.6598L55.741 27.6438L55.7146 27.592C55.6923 27.5487 55.6608 27.4881 55.6202 27.4114C55.5391 27.258 55.4213 27.0399 55.2674 26.7664C54.9598 26.2196 54.507 25.4493 53.9132 24.5298C52.7285 22.6955 50.9674 20.2438 48.6606 17.7832C44.0895 12.9074 37.0989 7.7124 28 7.7124C18.9011 7.7124 11.9105 12.9074 7.33941 17.7832C5.03261 20.2438 3.27149 22.6955 2.08678 24.5298C1.49298 25.4493 1.04018 26.2196 0.7326 26.7664C0.578721 27.0399 0.460927 27.258 0.379758 27.4114C0.339166 27.4881 0.307709 27.5487 0.285455 27.592L0.258977 27.6438L0.250924 27.6598L0.248197 27.6652C0.247768 27.666 0.246337 27.6689 2.33333 28.7124L0.246337 27.6689C-0.0821122 28.3258 -0.0821122 29.099 0.246337 29.7559L2.33333 28.7124C0.246337 29.7559 0.245908 29.755 0.246337 29.7559L0.250924 29.765L0.258977 29.781L0.285455 29.8328C0.307709 29.8761 0.339166 29.9367 0.379758 30.0134C0.460927 30.1668 0.578721 30.3849 0.7326 30.6584C1.04018 31.2052 1.49298 31.9755 2.08678 32.895C3.27149 34.7293 5.03261 37.181 7.33941 39.6416C11.9105 44.5174 18.9011 49.7124 28 49.7124C37.0989 49.7124 44.0895 44.5174 48.6606 39.6416C50.9674 37.181 52.7285 34.7293 53.9132 32.895C54.507 31.9755 54.9598 31.2052 55.2674 30.6584C55.4213 30.3849 55.5391 30.1668 55.6202 30.0134C55.6608 29.9367 55.6923 29.8761 55.7146 29.8328L55.741 29.781L55.7491 29.765L55.7518 29.7596C55.7522 29.7588 55.7537 29.7559 53.6667 28.7124ZM53.6667 28.7124L55.7537 29.7559C56.0821 29.099 56.0813 28.3242 55.7528 27.6673L53.6667 28.7124Z" fill="#006298"/>
<path fill-rule="evenodd" clip-rule="evenodd" d="M28.0003 24.0458C25.423 24.0458 23.3337 26.1352 23.3337 28.7125C23.3337 31.2898 25.423 33.3792 28.0003 33.3792C30.5777 33.3792 32.667 31.2898 32.667 28.7125C32.667 26.1352 30.5777 24.0458 28.0003 24.0458ZM18.667 28.7125C18.667 23.5578 22.8457 19.3792 28.0003 19.3792C33.155 19.3792 37.3337 23.5578 37.3337 28.7125C37.3337 33.8671 33.155 38.0458 28.0003 38.0458C22.8457 38.0458 18.667 33.8671 18.667 28.7125Z" fill="#006298"/>
</svg>
