<svg width="56" height="56" viewBox="0 0 56 56" fill="none" xmlns="http://www.w3.org/2000/svg">
<path fill-rule="evenodd" clip-rule="evenodd" d="M33.7443 5.81753C35.5848 5.05489 37.5576 4.66235 39.5499 4.66235C41.5423 4.66235 43.5151 5.05489 45.3556 5.81753C47.1959 6.58003 48.8679 7.69757 50.2761 9.10631C51.6849 10.5146 52.8032 12.1874 53.5657 14.0276C54.3283 15.8682 54.7209 17.841 54.7209 19.8333C54.7209 21.8256 54.3283 23.7984 53.5657 25.639C52.8031 27.4794 51.6855 29.1515 50.2765 30.5599C50.2764 30.56 50.2767 30.5597 50.2765 30.5599L29.6499 51.1865C28.7386 52.0978 27.2613 52.0978 26.35 51.1865L5.72337 30.5599C2.8785 27.715 1.28027 23.8565 1.28027 19.8333C1.28027 15.81 2.8785 11.9516 5.72337 9.1067C8.56824 6.26183 12.4267 4.6636 16.45 4.6636C20.4732 4.6636 24.3317 6.26183 27.1765 9.1067L28 9.93012L28.823 9.10708C28.8229 9.10721 28.8231 9.10696 28.823 9.10708C30.2314 7.69816 31.9039 6.5801 33.7443 5.81753ZM39.5499 9.32902C38.1707 9.32902 36.8049 9.60077 35.5306 10.1288C34.2564 10.6567 33.0987 11.4306 32.1236 12.4061L29.6499 14.8799C28.7386 15.7911 27.2613 15.7911 26.35 14.8799L23.8767 12.4065C21.907 10.4368 19.2355 9.33027 16.45 9.33027C13.6644 9.33027 10.9929 10.4368 9.0232 12.4065C7.0535 14.3762 5.94694 17.0477 5.94694 19.8333C5.94694 22.6189 7.0535 25.2903 9.0232 27.26L28 46.2368L46.9767 27.26C47.9522 26.285 48.7265 25.1268 49.2545 23.8526C49.7825 22.5784 50.0542 21.2126 50.0542 19.8333C50.0542 18.454 49.7825 17.0882 49.2545 15.814C48.7265 14.5397 47.9526 13.382 46.9771 12.4069C46.002 11.4314 44.8435 10.6567 43.5693 10.1288C42.295 9.60077 40.9292 9.32902 39.5499 9.32902Z" fill="#006298"/>
</svg>
