<svg width="52" height="52" viewBox="0 0 52 52" fill="none" xmlns="http://www.w3.org/2000/svg">
<path fill-rule="evenodd" clip-rule="evenodd" d="M26 6.49984C15.2305 6.49984 6.50002 15.2303 6.50002 25.9998C6.50002 36.7694 15.2305 45.4998 26 45.4998C36.7696 45.4998 45.5 36.7694 45.5 25.9998C45.5 15.2303 36.7696 6.49984 26 6.49984ZM2.16669 25.9998C2.16669 12.8371 12.8372 2.1665 26 2.1665C39.1628 2.1665 49.8334 12.8371 49.8334 25.9998C49.8334 39.1626 39.1628 49.8332 26 49.8332C12.8372 49.8332 2.16669 39.1626 2.16669 25.9998Z" fill="white"/>
<path fill-rule="evenodd" clip-rule="evenodd" d="M15.1667 32.5002C15.1667 31.3035 16.1367 30.3335 17.3334 30.3335H34.6667C35.8633 30.3335 36.8334 31.3035 36.8334 32.5002C36.8334 33.6968 35.8633 34.6668 34.6667 34.6668H17.3334C16.1367 34.6668 15.1667 33.6968 15.1667 32.5002Z" fill="white"/>
<path fill-rule="evenodd" clip-rule="evenodd" d="M17.3333 19.5002C17.3333 18.3035 18.3034 17.3335 19.5 17.3335H19.5216C20.7183 17.3335 21.6883 18.3035 21.6883 19.5002C21.6883 20.6968 20.7183 21.6668 19.5216 21.6668H19.5C18.3034 21.6668 17.3333 20.6968 17.3333 19.5002Z" fill="white"/>
<path fill-rule="evenodd" clip-rule="evenodd" d="M30.3333 19.5002C30.3333 18.3035 31.3034 17.3335 32.5 17.3335H32.5216C33.7183 17.3335 34.6883 18.3035 34.6883 19.5002C34.6883 20.6968 33.7183 21.6668 32.5216 21.6668H32.5C31.3034 21.6668 30.3333 20.6968 30.3333 19.5002Z" fill="white"/>
</svg>
