<svg width="56" height="57" viewBox="0 0 56 57" fill="none" xmlns="http://www.w3.org/2000/svg">
<path fill-rule="evenodd" clip-rule="evenodd" d="M9.33301 10.0458C8.04434 10.0458 6.99967 11.0905 6.99967 12.3792V35.7125C6.99967 37.0011 8.04434 38.0458 9.33301 38.0458H46.6663C47.955 38.0458 48.9997 37.0011 48.9997 35.7125V12.3792C48.9997 11.0905 47.955 10.0458 46.6663 10.0458H9.33301ZM2.33301 12.3792C2.33301 8.51316 5.46701 5.37915 9.33301 5.37915H46.6663C50.5323 5.37915 53.6663 8.51316 53.6663 12.3792V35.7125C53.6663 39.5785 50.5323 42.7125 46.6663 42.7125H9.33301C5.46701 42.7125 2.33301 39.5785 2.33301 35.7125V12.3792Z" fill="#006298"/>
<path fill-rule="evenodd" clip-rule="evenodd" d="M16.333 49.7125C16.333 48.4238 17.3777 47.3792 18.6663 47.3792H37.333C38.6217 47.3792 39.6663 48.4238 39.6663 49.7125C39.6663 51.0011 38.6217 52.0458 37.333 52.0458H18.6663C17.3777 52.0458 16.333 51.0011 16.333 49.7125Z" fill="#006298"/>
<path fill-rule="evenodd" clip-rule="evenodd" d="M28.0003 38.0457C29.289 38.0457 30.3337 39.0903 30.3337 40.379V49.7123C30.3337 51.001 29.289 52.0457 28.0003 52.0457C26.7117 52.0457 25.667 51.001 25.667 49.7123V40.379C25.667 39.0903 26.7117 38.0457 28.0003 38.0457Z" fill="#006298"/>
</svg>
