<svg width="56" height="57" viewBox="0 0 56 57" fill="none" xmlns="http://www.w3.org/2000/svg">
<path fill-rule="evenodd" clip-rule="evenodd" d="M23.5341 4.43145C23.9086 3.58882 24.7442 3.04578 25.6663 3.04578C28.1417 3.04578 30.5157 4.02911 32.266 5.77945C34.0163 7.52979 34.9997 9.90376 34.9997 12.3791V19.3791H45.8611C46.8708 19.3698 47.8707 19.579 48.7921 19.9925C49.7179 20.408 50.5422 21.0198 51.2081 21.7856C51.8739 22.5513 52.3654 23.4526 52.6483 24.4271C52.9312 25.4016 52.9989 26.426 52.8466 27.4293L49.6266 48.429C49.6265 48.4296 49.6267 48.4283 49.6266 48.429C49.3732 50.0974 48.5252 51.62 47.2393 52.713C45.9566 53.8033 44.324 54.3947 42.6409 54.3791H9.33301C7.47649 54.3791 5.69601 53.6416 4.38326 52.3289C3.07051 51.0161 2.33301 49.2356 2.33301 47.3791V31.0458C2.33301 29.1893 3.07051 27.4088 4.38326 26.096C5.69601 24.7833 7.47649 24.0458 9.33301 24.0458H14.8166L23.5341 4.43145ZM13.9997 28.7124H9.33301C8.71417 28.7124 8.12068 28.9583 7.68309 29.3959C7.24551 29.8334 6.99967 30.4269 6.99967 31.0458V47.3791C6.99967 47.998 7.24551 48.5914 7.68309 49.029C8.12068 49.4666 8.71417 49.7124 9.33301 49.7124H13.9997V28.7124ZM18.6663 49.7124H42.6794C43.2421 49.7188 43.7882 49.5217 44.2169 49.1573C44.6457 48.7928 44.9283 48.2856 45.0127 47.7293L48.2328 26.729C48.2327 26.7293 48.2328 26.7287 48.2328 26.729C48.2833 26.3948 48.2609 26.0528 48.1667 25.7283C48.0724 25.4034 47.9086 25.103 47.6866 24.8477C47.4646 24.5925 47.1899 24.3885 46.8813 24.25C46.5727 24.1115 46.2377 24.0418 45.8994 24.0456L45.873 24.0459L32.6663 24.0458C31.3777 24.0458 30.333 23.0011 30.333 21.7124V12.3791C30.333 11.1414 29.8413 9.95445 28.9662 9.07928C28.4345 8.54764 27.7878 8.15753 27.0846 7.93317L18.6663 26.8743V49.7124Z" fill="#006298"/>
</svg>
