<svg width="62" height="62" viewBox="0 0 62 62" fill="none" xmlns="http://www.w3.org/2000/svg">
<path fill-rule="evenodd" clip-rule="evenodd" d="M26.056 4.11739C26.4707 3.18448 27.3958 2.58325 28.4167 2.58325C31.1573 2.58325 33.7856 3.67194 35.7235 5.60982C37.6614 7.54769 38.75 10.176 38.75 12.9166V20.6666H50.7752C51.8931 20.6562 53.0001 20.8879 54.0202 21.3457C55.0452 21.8057 55.9579 22.4831 56.6951 23.3309C57.4323 24.1786 57.9763 25.1766 58.2896 26.2555C58.6028 27.3344 58.6777 28.4685 58.5091 29.5793L54.9442 52.8289C54.9441 52.8296 54.9443 52.8282 54.9442 52.8289C54.6635 54.6761 53.7247 56.3618 52.3011 57.5719C50.8809 58.7791 49.0734 59.4338 47.21 59.4166H10.3334C8.27795 59.4166 6.3067 58.6001 4.8533 57.1467C3.39989 55.6933 2.58337 53.722 2.58337 51.6666V33.5833C2.58337 31.5278 3.39989 29.5566 4.8533 28.1032C6.3067 26.6498 8.27795 25.8333 10.3334 25.8333H16.4045L26.056 4.11739ZM15.5 30.9999H10.3334C9.64823 30.9999 8.99115 31.2721 8.50668 31.7566C8.02221 32.241 7.75004 32.8981 7.75004 33.5833V51.6666C7.75004 52.3517 8.02221 53.0088 8.50668 53.4933C8.99115 53.9777 9.64823 54.2499 10.3334 54.2499H15.5V30.9999ZM20.6667 54.2499H47.2526C47.8756 54.257 48.4801 54.0388 48.9549 53.6353C49.4296 53.2317 49.7425 52.6702 49.8359 52.0542L53.401 28.8039C53.4009 28.8043 53.401 28.8036 53.401 28.8039C53.457 28.434 53.4321 28.0553 53.3278 27.696C53.2234 27.3364 53.042 27.0037 52.7963 26.7211C52.5505 26.4385 52.2463 26.2127 51.9047 26.0594C51.563 25.9061 51.1921 25.8288 50.8176 25.8331L50.7884 25.8334L36.1667 25.8333C34.74 25.8333 33.5834 24.6767 33.5834 23.2499V12.9166C33.5834 11.5463 33.039 10.2321 32.0701 9.2632C31.4815 8.6746 30.7655 8.24269 29.9869 7.9943L20.6667 28.9648V54.2499Z" fill="white"/>
</svg>
