<svg width="56" height="57" viewBox="0 0 56 57" fill="none" xmlns="http://www.w3.org/2000/svg">
<path fill-rule="evenodd" clip-rule="evenodd" d="M38.6354 7.77781C37.5084 7.65047 36.3626 7.68737 35.2341 7.89299C32.9009 8.3181 30.7527 9.44416 29.0757 11.1211C27.3988 12.7981 26.2727 14.9463 25.8476 17.2794C25.4225 19.6126 25.7185 22.0199 26.6963 24.1805C27.0967 25.0654 26.9071 26.1057 26.2204 26.7924L10.0971 42.9158C9.60639 43.4064 9.33073 44.0719 9.33073 44.7658C9.33073 45.4598 9.60639 46.1253 10.0971 46.6159C10.5877 47.1066 11.2532 47.3823 11.9471 47.3823C12.6411 47.3823 13.3066 47.1066 13.7972 46.6159L29.9206 30.4926C30.6073 29.8059 31.6476 29.6163 32.5324 30.0167C34.6931 30.9944 37.1004 31.2905 39.4336 30.8654C41.7667 30.4403 43.9149 29.3142 45.5919 27.6373C47.2688 25.9603 48.3949 23.8121 48.82 21.4789C49.0256 20.3504 49.0625 19.2046 48.9352 18.0776L42.9339 24.0789C42.0616 24.934 40.8887 25.4129 39.6671 25.4129C38.4456 25.4129 37.2728 24.9339 36.4005 24.0789L36.3838 24.0625L32.6341 20.3126C31.779 19.4403 31.3001 18.2674 31.3001 17.0459C31.3001 15.8243 31.7791 14.6515 32.6341 13.7792L32.6505 13.7625L38.6354 7.77781ZM34.3976 3.30191C37.664 2.70676 41.0342 3.12122 44.0591 4.49005C44.757 4.80584 45.2554 5.44403 45.3927 6.1976C45.53 6.95117 45.2887 7.72414 44.7471 8.26577L35.967 17.0459L39.6671 20.746L48.4472 11.9659C48.9889 11.4243 49.7618 11.183 50.5154 11.3203C51.269 11.4576 51.9072 11.956 52.2229 12.6539C53.5918 15.6788 54.0062 19.049 53.4111 22.3154C52.8159 25.5819 51.2394 28.5893 48.8917 30.9371C46.544 33.2848 43.5365 34.8613 40.2701 35.4565C37.546 35.9528 34.7498 35.747 32.1418 34.871L17.0971 49.9158C15.7312 51.2816 13.8787 52.0489 11.9471 52.0489C10.0155 52.0489 8.16307 51.2816 6.79723 49.9158C5.43138 48.5499 4.66406 46.6974 4.66406 44.7658C4.66406 42.8343 5.43139 40.9818 6.79723 39.6159L21.842 24.5712C20.966 21.9632 20.7602 19.167 21.2565 16.4429C21.8517 13.1765 23.4282 10.169 25.7759 7.82129C28.1236 5.47355 31.1311 3.89706 34.3976 3.30191Z" fill="#006298"/>
</svg>
