<svg width="63" height="62" viewBox="0 0 63 62" fill="none" xmlns="http://www.w3.org/2000/svg">
<g clip-path="url(#clip0_726_1476)">
<path fill-rule="evenodd" clip-rule="evenodd" d="M61.7434 13.6734C62.7522 14.6822 62.7522 16.3179 61.7434 17.3268L37.2017 41.8684C36.1928 42.8773 34.5572 42.8773 33.5483 41.8684L22.4583 30.7785L4.91003 48.3268C3.90117 49.3356 2.2655 49.3356 1.25664 48.3268C0.247786 47.3179 0.247786 45.6822 1.25664 44.6734L20.6316 25.2984C21.6405 24.2895 23.2762 24.2895 24.285 25.2984L35.375 36.3884L58.09 13.6734C59.0988 12.6645 60.7345 12.6645 61.7434 13.6734Z" fill="white"/>
<path fill-rule="evenodd" clip-rule="evenodd" d="M41.8333 15.5001C41.8333 14.0733 42.9899 12.9167 44.4166 12.9167H59.9166C61.3434 12.9167 62.5 14.0733 62.5 15.5001V31.0001C62.5 32.4268 61.3434 33.5834 59.9166 33.5834C58.4899 33.5834 57.3333 32.4268 57.3333 31.0001V18.0834H44.4166C42.9899 18.0834 41.8333 16.9268 41.8333 15.5001Z" fill="white"/>
</g>
<defs>
<clipPath id="clip0_726_1476">
<rect width="62" height="62" fill="white" transform="translate(0.5)"/>
</clipPath>
</defs>
</svg>
