<svg width="62" height="62" viewBox="0 0 62 62" fill="none" xmlns="http://www.w3.org/2000/svg">
<path fill-rule="evenodd" clip-rule="evenodd" d="M3.7832 39.95C6.20555 37.5276 9.49095 36.1667 12.9167 36.1667H33.5833C37.009 36.1667 40.2945 37.5276 42.7168 39.95C45.1391 42.3723 46.5 45.6577 46.5 49.0834V54.2501C46.5 55.6768 45.3434 56.8334 43.9167 56.8334C42.4899 56.8334 41.3333 55.6768 41.3333 54.2501V49.0834C41.3333 47.028 40.5168 45.0567 39.0634 43.6033C37.61 42.1499 35.6388 41.3334 33.5833 41.3334H12.9167C10.8612 41.3334 8.89 42.1499 7.43659 43.6033C5.98318 45.0567 5.16667 47.028 5.16667 49.0834V54.2501C5.16667 55.6768 4.01007 56.8334 2.58333 56.8334C1.1566 56.8334 0 55.6768 0 54.2501V49.0834C0 45.6577 1.36086 42.3723 3.7832 39.95Z" fill="white"/>
<path fill-rule="evenodd" clip-rule="evenodd" d="M23.25 10.3334C18.9698 10.3334 15.5 13.8032 15.5 18.0834C15.5 22.3636 18.9698 25.8334 23.25 25.8334C27.5302 25.8334 31 22.3636 31 18.0834C31 13.8032 27.5302 10.3334 23.25 10.3334ZM10.3334 18.0834C10.3334 10.9497 16.1164 5.16675 23.25 5.16675C30.3837 5.16675 36.1667 10.9497 36.1667 18.0834C36.1667 25.2171 30.3837 31.0001 23.25 31.0001C16.1164 31.0001 10.3334 25.2171 10.3334 18.0834Z" fill="white"/>
<path fill-rule="evenodd" clip-rule="evenodd" d="M49.1654 38.4401C49.5221 37.0586 50.9311 36.2279 52.3126 36.5846C55.0836 37.3001 57.5386 38.9156 59.292 41.1775C61.0454 43.4394 61.9979 46.2196 62.0001 49.0815L62.0001 54.2501C62.0001 55.6768 60.8435 56.8334 59.4167 56.8334C57.99 56.8334 56.8334 55.6768 56.8334 54.2501L56.8334 49.0853C56.8334 49.0851 56.8334 49.0856 56.8334 49.0853C56.8319 47.3685 56.2604 45.6999 55.2085 44.3429C54.1565 42.9858 52.6835 42.0165 51.0209 41.5872C49.6395 41.2305 48.8087 39.8215 49.1654 38.4401Z" fill="white"/>
<path fill-rule="evenodd" clip-rule="evenodd" d="M38.8307 7.44514C39.1846 6.06299 40.592 5.22942 41.9741 5.5833C44.7525 6.29469 47.2152 7.91057 48.9738 10.1762C50.7324 12.4418 51.6869 15.2283 51.6869 18.0963C51.6869 20.9644 50.7324 23.7509 48.9738 26.0165C47.2152 28.2821 44.7525 29.898 41.9741 30.6093C40.592 30.9632 39.1846 30.1297 38.8307 28.7475C38.4769 27.3654 39.3104 25.958 40.6926 25.6041C42.3596 25.1773 43.8372 24.2078 44.8924 22.8484C45.9475 21.489 46.5203 19.8172 46.5203 18.0963C46.5203 16.3755 45.9475 14.7036 44.8924 13.3442C43.8372 11.9849 42.3596 11.0153 40.6926 10.5885C39.3104 10.2346 38.4769 8.82729 38.8307 7.44514Z" fill="white"/>
</svg>
