<svg width="56" height="56" viewBox="0 0 56 56" fill="none" xmlns="http://www.w3.org/2000/svg">
<path fill-rule="evenodd" clip-rule="evenodd" d="M10.4171 36.0837C12.605 33.8958 15.5725 32.6666 18.6667 32.6666H37.3333C40.4275 32.6666 43.395 33.8958 45.5829 36.0837C47.7708 38.2716 49 41.2391 49 44.3333V49C49 50.2886 47.9553 51.3333 46.6667 51.3333C45.378 51.3333 44.3333 50.2886 44.3333 49V44.3333C44.3333 42.4768 43.5958 40.6963 42.2831 39.3835C40.9703 38.0708 39.1898 37.3333 37.3333 37.3333H18.6667C16.8102 37.3333 15.0297 38.0708 13.7169 39.3835C12.4042 40.6963 11.6667 42.4768 11.6667 44.3333V49C11.6667 50.2886 10.622 51.3333 9.33333 51.3333C8.04467 51.3333 7 50.2886 7 49V44.3333C7 41.2391 8.22916 38.2716 10.4171 36.0837Z" fill="#006298"/>
<path fill-rule="evenodd" clip-rule="evenodd" d="M27.9999 9.33329C24.1339 9.33329 20.9999 12.4673 20.9999 16.3333C20.9999 20.1993 24.1339 23.3333 27.9999 23.3333C31.8659 23.3333 34.9999 20.1993 34.9999 16.3333C34.9999 12.4673 31.8659 9.33329 27.9999 9.33329ZM16.3333 16.3333C16.3333 9.88997 21.5566 4.66663 27.9999 4.66663C34.4432 4.66663 39.6666 9.88997 39.6666 16.3333C39.6666 22.7766 34.4432 28 27.9999 28C21.5566 28 16.3333 22.7766 16.3333 16.3333Z" fill="#006298"/>
</svg>
