<svg width="156" height="48" viewBox="0 0 156 48" fill="none" xmlns="http://www.w3.org/2000/svg">
<g clip-path="url(#clip0_148_981)">
<path d="M22.6872 39.7369C21.3461 39.7726 19.1677 39.838 16.9873 39.8797C16.66 39.8797 16.6339 40.0919 16.5376 40.2883C16.0176 41.3474 15.1864 42.0099 13.9878 42.1289C13.4103 42.2099 12.8214 42.1249 12.2916 41.8839C11.7618 41.643 11.3135 41.2563 11.0003 40.7702C10.7659 40.4135 10.6077 40.0133 10.5355 39.594C10.4633 39.1748 10.4785 38.7454 10.5803 38.3322C10.6821 37.9189 10.8683 37.5306 11.1274 37.191C11.3865 36.8514 11.7131 36.5677 12.0872 36.3573C12.4613 36.1469 12.875 36.0142 13.3028 35.9673C13.7307 35.9205 14.1637 35.9605 14.5754 36.0849C14.987 36.2093 15.3686 36.4155 15.6967 36.6908C16.0248 36.9661 16.2925 37.3048 16.4834 37.6859C16.6841 38.1501 16.9311 38.2354 17.3908 38.2195C20.6594 38.1084 23.928 38.0013 27.1986 38.043C27.8431 38.043 28.4875 38.043 29.13 38.0688C29.4593 38.0846 29.5878 37.9656 29.6721 37.6721C30.7542 33.834 31.9569 30.0317 33.2498 26.2592C33.4506 25.6899 33.6895 25.1385 33.8983 24.5752C33.9686 24.3888 34.0329 24.2896 34.2336 24.4443C34.4344 24.599 34.6191 24.6962 34.7998 24.841C35.2254 25.1722 35.2495 25.5888 35.0889 26.0707C34.4304 28.0304 33.7638 29.9881 33.1454 31.9597C32.4508 34.1812 31.8023 36.4165 31.1377 38.6479C30.8546 39.598 30.6719 39.7428 29.6781 39.7428L22.6872 39.7369ZM13.6525 40.4826C13.8462 40.4856 14.0386 40.4502 14.2183 40.3786C14.398 40.307 14.5614 40.2006 14.6989 40.0657C14.8364 39.9308 14.9452 39.7701 15.0189 39.593C15.0926 39.416 15.1298 39.2261 15.1281 39.0347C15.129 38.8394 15.0904 38.6459 15.0148 38.4655C14.9392 38.2851 14.8279 38.1213 14.6876 37.9838C14.5473 37.8463 14.3806 37.7377 14.1974 37.6644C14.0142 37.5912 13.818 37.5547 13.6203 37.557C13.2293 37.5708 12.8588 37.7332 12.5861 38.0104C12.3134 38.2876 12.1596 38.6581 12.1567 39.0446C12.1593 39.2361 12.2001 39.4251 12.2767 39.601C12.3533 39.7769 12.4642 39.9362 12.6031 40.0697C12.742 40.2032 12.9062 40.3084 13.0862 40.3793C13.2663 40.4501 13.4587 40.4853 13.6525 40.4826Z" fill="#262626"/>
<path d="M46.7498 20.7253C46.7097 21.9907 46.1475 22.9587 45.0011 23.524C43.8547 24.0892 42.6842 24.0059 41.6502 23.2165C40.6162 22.4271 40.2167 21.3997 40.4817 20.1521C40.566 19.7554 40.4817 19.557 40.1324 19.3587C36.8036 17.276 33.545 15.0902 30.3347 12.833C30.0416 12.6347 29.8669 12.6347 29.5918 12.8608C26.524 15.36 23.3913 17.7772 20.1937 20.1124C19.6757 20.4892 19.1276 20.8244 18.6056 21.1954C18.3747 21.358 18.2944 21.2945 18.204 21.0565C17.7824 20.0231 17.8366 19.7851 18.7401 19.1206C22.2335 16.5527 25.6661 13.9081 29.0377 11.1868C29.7926 10.5759 30.0074 10.5759 30.8226 11.1451C34.2357 13.5253 37.695 15.8697 41.2286 18.0873C41.3264 18.166 41.4487 18.2091 41.5749 18.2091C41.7011 18.2091 41.8234 18.166 41.9212 18.0873C42.9813 17.4605 44.0795 17.4248 45.1597 18.0377C46.1957 18.6248 46.7056 19.5431 46.7498 20.7253ZM45.0513 20.7253C45.0513 20.3377 44.8961 19.9659 44.6197 19.6909C44.3432 19.4159 43.9679 19.2601 43.5756 19.2575C43.1847 19.2654 42.8118 19.4213 42.5339 19.693C42.2559 19.9646 42.0941 20.3313 42.0819 20.7173C42.0799 20.9132 42.1179 21.1074 42.1936 21.2884C42.2693 21.4694 42.3811 21.6334 42.5224 21.7708C42.6637 21.9082 42.8316 22.016 43.016 22.0879C43.2004 22.1597 43.3975 22.1941 43.5957 22.1891C43.7888 22.1902 43.9803 22.1531 44.1587 22.0799C44.3371 22.0068 44.4989 21.8991 44.6346 21.7633C44.7702 21.6274 44.877 21.4661 44.9485 21.2889C45.0201 21.1116 45.055 20.922 45.0513 20.7312V20.7253Z" fill="#262626"/>
<path d="M27.1243 17.7481C27.3612 17.5498 27.5459 17.3911 27.7386 17.2383C28.2145 16.8615 28.5799 16.8417 29.0878 17.1788C31.9649 19.077 34.8058 21.0327 37.7592 22.8218C38.6566 23.3653 39.546 23.9266 40.4355 24.484C41.1301 24.9183 41.2386 25.1742 41.0037 25.9458C39.8311 29.9603 38.6827 33.9808 37.6829 38.045C37.636 38.169 37.6349 38.3054 37.6797 38.4301C37.7245 38.5549 37.8123 38.6601 37.9278 38.7273C38.4902 39.1896 38.8728 39.8305 39.0103 40.5404C39.1477 41.2503 39.0316 41.9854 38.6816 42.6202C38.3317 43.255 37.7697 43.7501 37.0914 44.0212C36.4131 44.2922 35.6607 44.3224 34.9624 44.1064C33.4767 43.6562 32.5913 42.2995 32.7539 40.7107C32.843 40.0097 33.1726 39.36 33.6877 38.8699C34.2028 38.3797 34.8724 38.0788 35.5848 38.0172C35.6438 38.0221 35.7031 38.0154 35.7594 37.9976C35.8158 37.9798 35.868 37.9512 35.9131 37.9135C35.9583 37.8757 35.9954 37.8295 36.0224 37.7775C36.0495 37.7256 36.0659 37.6688 36.0707 37.6106C37.0223 33.7547 38.0717 29.9253 39.2188 26.1223C39.3091 25.8268 39.2469 25.7078 38.9919 25.5531C35.5989 23.4823 32.258 21.3336 28.9694 19.1068C28.3409 18.6803 27.7527 18.2142 27.1243 17.7481ZM34.4203 41.1035C34.4176 41.2988 34.4545 41.4927 34.5288 41.6737C34.603 41.8548 34.7131 42.0194 34.8527 42.1578C34.9922 42.2962 35.1583 42.4056 35.3413 42.4797C35.5243 42.5538 35.7204 42.591 35.9181 42.5891C36.3092 42.5764 36.6802 42.4154 36.9543 42.1394C37.2283 41.8635 37.3843 41.494 37.3898 41.1074C37.3814 40.7208 37.2206 40.3528 36.9416 40.0816C36.6626 39.8104 36.2874 39.6575 35.896 39.6555C35.7022 39.6526 35.5099 39.688 35.3301 39.7596C35.1504 39.8312 34.987 39.9376 34.8495 40.0725C34.712 40.2074 34.6033 40.3681 34.5295 40.5452C34.4558 40.7222 34.4187 40.912 34.4203 41.1035Z" fill="#262626"/>
<path d="M21.2818 34.1891C18.2803 34.2883 16.0617 34.3577 13.8532 34.4351C13.0923 34.4628 12.8353 34.3101 12.6044 33.6079C11.2914 29.641 9.93819 25.6741 8.4605 21.7587C8.33201 21.4215 8.18344 21.2906 7.80599 21.2767C6.16769 21.2093 4.85263 19.7574 4.88676 18.1032C4.90907 17.296 5.24374 16.528 5.82188 15.9572C6.40002 15.3864 7.17765 15.0562 7.99471 15.0347C9.63703 14.999 11.1027 16.2863 11.2231 17.8731C11.2757 18.37 11.2046 18.872 11.016 19.3356C10.8274 19.7992 10.527 20.2102 10.141 20.5329C10.0479 20.5932 9.98161 20.6862 9.95551 20.793C9.9294 20.8999 9.94546 21.0125 10.0004 21.1081C11.4152 24.8225 12.7323 28.5706 13.9516 32.3524C14.058 32.6836 14.1986 32.7689 14.5399 32.7491C18.5172 32.5825 22.4965 32.4932 26.4778 32.525C27.1203 32.525 27.7648 32.5865 28.4072 32.6023C28.6502 32.6023 28.7164 32.6777 28.6622 32.9217C28.4253 33.9729 28.1663 34.1871 27.0801 34.1871L21.2818 34.1891ZM8.07502 19.6364C8.26899 19.639 8.46154 19.6035 8.64146 19.5318C8.82138 19.4602 8.98507 19.3539 9.12298 19.2191C9.26089 19.0844 9.37027 18.9238 9.44474 18.7469C9.51921 18.5699 9.55727 18.3801 9.55672 18.1884C9.5607 17.8972 9.47687 17.6113 9.31588 17.3672C9.15489 17.1232 8.92403 16.932 8.65269 16.818C8.38135 16.7039 8.0818 16.6723 7.79218 16.7269C7.50256 16.7816 7.23596 16.9202 7.02632 17.1251C6.81669 17.33 6.6735 17.5918 6.61498 17.8773C6.55646 18.1628 6.58526 18.4591 6.69772 18.7284C6.81017 18.9977 7.00119 19.2278 7.24646 19.3895C7.49173 19.5512 7.78016 19.6371 8.07502 19.6364Z" fill="#262626"/>
<path d="M26.7127 3.37189C27.3619 3.37023 27.9959 3.56588 28.5287 3.93229C29.0615 4.2987 29.4673 4.81814 29.6911 5.42016C29.9149 6.02217 29.9458 6.67763 29.7798 7.29761C29.6137 7.9176 29.2586 8.47211 28.7626 8.88594C28.2761 9.31045 27.6663 9.57236 27.0203 9.63434C26.3742 9.69631 25.7249 9.55518 25.1648 9.23106C24.8154 9.03272 24.6187 9.05057 24.3235 9.29255C21.2818 11.7818 18.1739 14.1699 15.0037 16.4886C14.7146 16.7008 14.6564 16.8694 14.7909 17.2066C16.3328 21.0803 17.8025 24.9818 19.0974 28.9388C19.2239 29.3256 19.3183 29.7223 19.4388 30.1111C19.501 30.3094 19.4649 30.3868 19.238 30.4165C18.1578 30.5573 17.8426 30.3868 17.4993 29.3871C16.0899 25.2588 14.5781 21.1676 12.9638 17.1134C12.6767 16.3914 12.7631 16.078 13.4096 15.6059C16.7839 13.1226 20.1006 10.5686 23.3598 7.94379C23.6028 7.74544 23.7272 7.5947 23.6329 7.22974C23.5158 6.76945 23.5072 6.28875 23.6078 5.82466C23.7083 5.36057 23.9153 4.92545 24.2128 4.5528C24.5103 4.18015 24.8904 3.87991 25.3238 3.67518C25.7572 3.47045 26.2324 3.36669 26.7127 3.37189ZM26.7127 5.03801C26.4181 5.03525 26.1293 5.11909 25.8831 5.27887C25.6368 5.43864 25.4442 5.66714 25.3297 5.93531C25.2153 6.20349 25.184 6.49924 25.2401 6.78498C25.2962 7.07072 25.4369 7.33354 25.6446 7.54004C25.8522 7.74655 26.1172 7.88741 26.4061 7.94473C26.6949 8.00205 26.9945 7.97324 27.2667 7.86196C27.539 7.75068 27.7715 7.56195 27.9349 7.31976C28.0983 7.07757 28.1852 6.79286 28.1844 6.50181C28.1813 6.11748 28.0259 5.74965 27.7516 5.47714C27.4772 5.20463 27.1057 5.04913 26.7167 5.04396L26.7127 5.03801Z" fill="#262626"/>
<path d="M25.3916 30.4403C24.3335 30.4403 23.2775 30.4403 22.2214 30.4403C21.7596 30.4403 21.4986 30.2281 21.3461 29.8036C20.6353 27.8202 19.9868 25.8367 19.3725 23.8235C19.2996 23.6425 19.2932 23.4419 19.3545 23.2568C19.4157 23.0716 19.5407 22.9135 19.7078 22.8099C21.4023 21.5365 23.1242 20.3022 24.8736 19.1068C25.026 18.982 25.2178 18.9136 25.4157 18.9136C25.6137 18.9136 25.8054 18.982 25.9578 19.1068C27.7266 20.2969 29.4552 21.5544 31.1598 22.8377C31.3125 22.9352 31.4262 23.082 31.4815 23.2531C31.5368 23.4242 31.5302 23.609 31.463 23.7759C30.8607 25.8189 30.178 27.84 29.4693 29.8512C29.4245 30.0253 29.3199 30.1785 29.1734 30.2849C29.027 30.3912 28.8477 30.4441 28.6662 30.4344L25.3916 30.4403ZM25.4177 28.798C26.1786 28.798 26.9376 28.798 27.6965 28.798C27.8009 28.8136 27.9074 28.7895 27.9946 28.7307C28.0818 28.6718 28.1431 28.5824 28.1663 28.4807C28.6642 27.0327 29.1702 25.5868 29.5918 24.117C29.648 23.9187 29.656 23.8036 29.4713 23.6648C28.2145 22.7167 26.9335 21.7984 25.6285 20.9098C25.5603 20.8548 25.4736 20.8274 25.3857 20.8329C25.2979 20.8384 25.2154 20.8765 25.1547 20.9395C23.8939 21.8043 22.6517 22.6936 21.4284 23.6073C21.3299 23.6589 21.2556 23.7464 21.2215 23.8512C21.1874 23.9561 21.1961 24.07 21.2457 24.1686C21.7235 25.5888 22.192 27.0122 22.6511 28.439C22.6703 28.55 22.7323 28.6493 22.824 28.7162C22.9156 28.7831 23.0299 28.8124 23.143 28.798C23.8919 28.7901 24.6588 28.798 25.4177 28.798Z" fill="#0E65F1"/>
<path d="M13.6525 40.4826C13.4587 40.4853 13.2663 40.4501 13.0862 40.3793C12.9062 40.3084 12.742 40.2032 12.6031 40.0697C12.4642 39.9362 12.3533 39.7769 12.2767 39.601C12.2001 39.4251 12.1594 39.2361 12.1567 39.0446C12.1596 38.6581 12.3134 38.2876 12.5861 38.0104C12.8588 37.7332 13.2294 37.5708 13.6204 37.557C13.818 37.5547 14.0142 37.5912 14.1974 37.6644C14.3806 37.7377 14.5473 37.8463 14.6876 37.9838C14.8279 38.1213 14.9392 38.2851 15.0148 38.4655C15.0904 38.6459 15.129 38.8394 15.1282 39.0347C15.1298 39.2261 15.0927 39.416 15.019 39.593C14.9452 39.7701 14.8364 39.9308 14.699 40.0657C14.5615 40.2006 14.3981 40.307 14.2184 40.3786C14.0386 40.4502 13.8462 40.4856 13.6525 40.4826Z" fill="#FEFEFE"/>
<path d="M45.0513 20.7312C45.0559 20.9225 45.0215 21.1128 44.9503 21.2907C44.8791 21.4687 44.7725 21.6307 44.6368 21.7672C44.501 21.9037 44.3389 22.0119 44.1601 22.0854C43.9813 22.1588 43.7894 22.1961 43.5957 22.195C43.3975 22.2001 43.2004 22.1657 43.016 22.0938C42.8315 22.0219 42.6637 21.9141 42.5224 21.7768C42.3811 21.6394 42.2693 21.4753 42.1936 21.2943C42.1179 21.1133 42.0799 20.9191 42.0819 20.7233C42.094 20.3386 42.2547 19.973 42.531 19.7016C42.8072 19.4302 43.1781 19.2734 43.5676 19.2635C43.9613 19.264 44.3386 19.4189 44.6168 19.6941C44.895 19.9693 45.0513 20.3423 45.0513 20.7312Z" fill="#FEFEFE"/>
<path d="M34.4204 41.1035C34.4188 40.912 34.4559 40.7222 34.5296 40.5452C34.6033 40.3681 34.7121 40.2074 34.8496 40.0725C34.9871 39.9376 35.1505 39.8312 35.3302 39.7596C35.51 39.688 35.7023 39.6526 35.8961 39.6555C36.2875 39.6575 36.6627 39.8104 36.9417 40.0816C37.2207 40.3528 37.3815 40.7208 37.3898 41.1074C37.3844 41.4939 37.2284 41.8635 36.9544 42.1394C36.6803 42.4153 36.3093 42.5764 35.9182 42.5891C35.7205 42.591 35.5244 42.5538 35.3414 42.4797C35.1584 42.4056 34.9923 42.2962 34.8528 42.1578C34.7132 42.0193 34.6031 41.8548 34.5288 41.6737C34.4546 41.4927 34.4177 41.2988 34.4204 41.1035Z" fill="#FEFEFE"/>
<path d="M8.07504 19.6364C7.78018 19.6371 7.49175 19.5512 7.24648 19.3895C7.00121 19.2278 6.81019 18.9977 6.69774 18.7284C6.58528 18.4591 6.55648 18.1628 6.615 17.8773C6.67352 17.5918 6.81671 17.33 7.02635 17.1251C7.23598 16.9202 7.50258 16.7816 7.7922 16.7269C8.08182 16.6722 8.38137 16.7039 8.65271 16.8179C8.92405 16.932 9.15491 17.1232 9.3159 17.3672C9.47689 17.6113 9.56073 17.8972 9.55674 18.1884C9.55729 18.3801 9.51923 18.5699 9.44476 18.7469C9.37029 18.9238 9.26091 19.0844 9.123 19.2191C8.98509 19.3539 8.8214 19.4602 8.64148 19.5318C8.46156 19.6035 8.26901 19.639 8.07504 19.6364Z" fill="#FEFEFE"/>
<path d="M26.7167 5.04396C27.0112 5.04677 27.2983 5.13599 27.5413 5.30028C27.7844 5.46458 27.9726 5.69654 28.0819 5.9667C28.1913 6.23686 28.2169 6.53303 28.1555 6.81759C28.0941 7.10216 27.9485 7.36228 27.7371 7.56492C27.5258 7.76756 27.2583 7.90358 26.9685 7.95569C26.6787 8.00781 26.3799 7.97367 26.1098 7.85761C25.8397 7.74156 25.6106 7.54883 25.4517 7.30389C25.2927 7.05896 25.211 6.77287 25.217 6.48198C25.227 6.09613 25.3895 5.7295 25.6699 5.46069C25.9503 5.19188 26.3261 5.04228 26.7167 5.04396Z" fill="#FEFEFE"/>
<path d="M25.4178 28.798C24.6589 28.798 23.8999 28.798 23.139 28.798C23.026 28.8124 22.9117 28.7831 22.82 28.7162C22.7283 28.6493 22.6664 28.55 22.6471 28.439C22.1894 27.0135 21.7209 25.5901 21.2417 24.1686C21.1921 24.07 21.1834 23.9561 21.2176 23.8512C21.2517 23.7464 21.3259 23.6588 21.4244 23.6073C22.6491 22.6949 23.8912 21.8056 25.1507 20.9395C25.2114 20.8765 25.2939 20.8384 25.3818 20.8329C25.4696 20.8274 25.5563 20.8548 25.6246 20.9097C26.9296 21.7983 28.2105 22.7167 29.4673 23.6648C29.6521 23.8036 29.644 23.9207 29.5878 24.117C29.1582 25.5848 28.6602 27.0307 28.1623 28.4807C28.1391 28.5824 28.0778 28.6718 27.9906 28.7306C27.9034 28.7895 27.7969 28.8136 27.6925 28.798C26.9376 28.7921 26.1787 28.798 25.4178 28.798Z" fill="#FEFEFE"/>
<path d="M129.9 34.3141C129.9 30.6818 129.921 27.0496 129.9 23.4198C129.9 22.9496 129.999 22.8085 130.494 22.8109C135.095 22.8297 139.692 22.825 144.293 22.8109C145.864 22.8109 147.194 21.8916 147.595 20.5492C148.232 18.4522 146.652 16.4539 144.293 16.4468C140.411 16.4351 136.529 16.4468 132.647 16.4468C131.871 16.4468 131.095 16.421 130.319 16.4351C130.006 16.4351 129.916 16.3293 129.926 16.0354C129.942 15.4735 129.956 14.9117 129.926 14.3545C129.9 13.9478 130.065 13.8843 130.423 13.8843C134.577 13.8984 138.73 13.8843 142.883 13.9031C143.753 13.9031 144.626 13.8443 145.496 13.983C146.864 14.2121 148.106 14.9182 149 15.9753C149.895 17.0325 150.383 18.3719 150.378 19.7546C150.343 22.4794 148.143 24.8985 145.35 25.2676C144.947 25.3235 144.54 25.3526 144.133 25.3546C140.525 25.3546 136.914 25.3663 133.303 25.3546C132.831 25.3546 132.654 25.4275 132.659 25.9658C132.694 28.747 132.676 31.5305 132.676 34.3141H129.9Z" fill="#262626"/>
<path d="M78.0172 34.3141C76.8524 34.3141 76.1531 34.3445 75.1537 34.008C70.687 32.5042 67.9008 29.2803 67.5116 25.2887C67.0823 20.8656 69.328 16.9116 73.3571 14.9783C74.8464 14.2593 76.4801 13.8892 78.1339 13.8961C81.0638 13.8961 83.9936 13.8961 86.9257 13.8843C87.3598 13.8843 87.5084 13.9857 87.4706 14.4289C87.4341 14.932 87.4341 15.4371 87.4706 15.9403C87.4966 16.3222 87.3668 16.4283 86.9989 16.4283C84.1091 16.4283 81.2171 16.4283 78.325 16.4283C75.4754 16.4283 73.1613 17.5411 71.4841 19.8399C70.4165 21.3267 69.9421 23.158 70.1537 24.9758C70.3653 26.7936 71.2476 28.4672 72.6282 29.6693C74.1503 31.045 76.1362 31.7953 78.1882 31.7701C81.118 31.7701 84.0502 31.7842 86.98 31.7701C87.3598 31.7701 87.4659 31.8691 87.4683 32.2416C87.4683 32.9324 87.4683 33.3748 87.4683 33.7694C87.4683 34.1641 87.3359 34.3141 86.98 34.3141C86.624 34.3141 78.0172 34.3141 78.0172 34.3141Z" fill="#262626"/>
<path d="M118.823 34.3141C117.123 31.1567 115.425 27.9985 113.73 24.8395C112.307 22.1893 110.869 19.5414 109.379 16.783L98.9088 34.3141H95.9815C95.9246 34.0954 96.0764 33.9519 96.1737 33.7873C100.059 27.2844 103.943 20.7783 107.826 14.2691C107.887 14.1411 107.987 14.0354 108.112 13.9674C108.238 13.8994 108.381 13.8725 108.523 13.8905C109.147 13.9164 109.773 13.9187 110.395 13.8905C110.545 13.8701 110.699 13.9005 110.83 13.9768C110.961 14.0532 111.063 14.171 111.118 14.3114C112.855 17.5449 114.612 20.7689 116.363 23.9953C118.114 27.2217 119.893 30.5209 121.658 33.785C121.779 33.9362 121.852 34.1194 121.869 34.3117L118.823 34.3141Z" fill="#262626"/>
<path d="M56.417 14.0967C57.1663 14.0967 57.918 14.0967 58.6673 14.0826C58.9301 14.0826 59.0489 14.1482 59.0237 14.4341C59.0077 14.6239 59.0237 14.8183 59.0237 15.0105C59.0237 21.163 59.0237 27.3172 59.0237 33.4729C59.0237 33.9555 58.9461 34.1523 58.4229 34.1101C57.7763 34.0539 57.091 34.0961 56.417 34.0937V14.0967Z" fill="#0E65F1"/>
</g>
<defs>
<clipPath id="clip0_148_981">
<rect width="156" height="48" fill="white"/>
</clipPath>
</defs>
</svg>
