<svg width="134" height="46" viewBox="0 0 134 46" fill="none" xmlns="http://www.w3.org/2000/svg">
<g clip-path="url(#clip0_148_945)">
<path d="M25.4122 0.225597L13.8665 22.4051C13.5938 22.8844 13.3211 23.3299 13.0484 23.7303C12.779 24.1386 12.4764 24.5252 12.1433 24.8864H27.2282C27.5562 24.8921 27.8692 25.0209 28.1017 25.2459C28.3342 25.4708 28.4681 25.7744 28.4756 26.0932V29.6347H6.69536V27.379C6.67851 26.8222 6.75293 26.2663 6.91583 25.7323C7.03639 25.3735 7.18177 25.0231 7.35097 24.6834L19.297 0.772612C19.3939 0.574093 19.5105 0.385224 19.6451 0.208679H0V45.0357H24.4897L36.0354 22.8506C36.3081 22.3712 36.5808 21.9257 36.8535 21.5253C37.1243 21.118 37.4269 20.7315 37.7586 20.3693H30.2161H22.6737C22.3478 20.365 22.0363 20.238 21.8047 20.015C21.5732 19.7921 21.4396 19.4905 21.4321 19.1737V15.6266H43.2065V17.8823C43.223 18.4372 43.1485 18.9912 42.9861 19.5234C42.8655 19.8821 42.7201 20.2326 42.5509 20.5723L30.6049 44.483C30.5076 44.6814 30.391 44.8702 30.2568 45.047H49.8961V0.225597H25.4122Z" fill="#00538E"/>
<path d="M59.1791 43.2819V40.8513H59.6664V43.2537C59.6397 43.4338 59.6543 43.6173 59.7091 43.7913C59.7638 43.9653 59.8575 44.1254 59.9833 44.2601C60.1092 44.3948 60.2641 44.5008 60.437 44.5705C60.6098 44.6403 60.7965 44.672 60.9834 44.6635C61.7725 44.6635 62.2773 44.1954 62.2773 43.2819V40.8513H62.7646V43.248C62.7646 44.4661 62.0452 45.0977 60.966 45.0977C60.7199 45.1141 60.4731 45.0778 60.2431 44.9912C60.0131 44.9045 59.8055 44.7698 59.635 44.5966C59.4645 44.4233 59.3353 44.2157 59.2565 43.9886C59.1777 43.7614 59.1513 43.5201 59.1791 43.2819Z" fill="#4E4E4F"/>
<path d="M63.8496 41.9454H64.3253V42.4642C64.429 42.2895 64.579 42.1451 64.7596 42.0459C64.9402 41.9467 65.1448 41.8964 65.3522 41.9002C65.5658 41.8937 65.7765 41.9492 65.9574 42.0597C66.1382 42.1702 66.2811 42.3307 66.3676 42.5206C66.4799 42.3291 66.6431 42.1705 66.8401 42.0614C67.0371 41.9522 67.2606 41.8966 67.4873 41.9002C67.6505 41.8994 67.8121 41.932 67.9614 41.9959C68.1108 42.0598 68.2446 42.1537 68.3541 42.2713C68.4636 42.3889 68.5464 42.5277 68.597 42.6785C68.6476 42.8293 68.6648 42.9888 68.6477 43.1465V45.0583H68.1778V43.2537C68.1778 42.6559 67.8703 42.3232 67.3539 42.3232C67.2303 42.324 67.1082 42.3501 66.9956 42.3997C66.883 42.4494 66.7825 42.5215 66.7004 42.6113C66.6183 42.7012 66.5566 42.8068 66.5193 42.9214C66.4819 43.0359 66.4698 43.1568 66.4836 43.2762V45.0583H66.0079V43.2198C66.0079 42.6559 65.6946 42.3006 65.1898 42.3006C65.0652 42.3047 64.9428 42.3335 64.8301 42.3852C64.7173 42.4368 64.6166 42.5103 64.534 42.6011C64.4515 42.6919 64.3889 42.7981 64.35 42.9132C64.3111 43.0283 64.2968 43.1499 64.3079 43.2706V45.0357H63.8322L63.8496 41.9454Z" fill="#4E4E4F"/>
<path d="M69.5006 44.7424L71.6121 42.3344H69.576V41.9453H72.256V42.2386L70.1445 44.6466H72.256V45.0357H69.5006V44.7424Z" fill="#4E4E4F"/>
<path d="M73.0514 43.8627V41.9453H73.5213V43.7499C73.506 43.8694 73.5177 43.9907 73.5555 44.1053C73.5933 44.22 73.6564 44.3252 73.7403 44.4138C73.8242 44.5023 73.927 44.5721 74.0414 44.6181C74.1559 44.6642 74.2793 44.6854 74.403 44.6804C74.5324 44.6822 74.6608 44.658 74.7802 44.6093C74.8995 44.5606 75.0072 44.4884 75.0965 44.3973C75.1858 44.3063 75.2548 44.1983 75.2992 44.0801C75.3436 43.9619 75.3623 43.836 75.3543 43.7104V41.9453H75.8184V45.0357H75.3543V44.4717C75.252 44.6668 75.0957 44.8303 74.903 44.9439C74.7104 45.0574 74.489 45.1165 74.2638 45.1146C74.0957 45.123 73.9278 45.0957 73.7717 45.0347C73.6156 44.9737 73.475 44.8804 73.3596 44.7613C73.2443 44.6422 73.157 44.5002 73.1038 44.345C73.0505 44.1898 73.0327 44.0252 73.0514 43.8627Z" fill="#4E4E4F"/>
<path d="M76.8458 45.5714L77.0604 45.2105C77.4124 45.4697 77.8428 45.6085 78.2844 45.6052C78.4412 45.6233 78.6003 45.6067 78.7495 45.5564C78.8988 45.5061 79.0343 45.4236 79.146 45.315C79.2577 45.2064 79.3426 45.0746 79.3943 44.9295C79.446 44.7844 79.4632 44.6298 79.4446 44.4773V44.1164C79.3063 44.3147 79.1206 44.4773 78.9033 44.5903C78.686 44.7033 78.4438 44.7632 78.1974 44.7649C78.0007 44.7687 77.8053 44.7341 77.6228 44.663C77.4402 44.5919 77.2742 44.4859 77.1345 44.3513C76.9949 44.2166 76.8846 44.056 76.8101 43.8791C76.7356 43.7022 76.6984 43.5125 76.7007 43.3213C76.6976 43.1291 76.7342 42.9383 76.8082 42.7601C76.8822 42.5819 76.9923 42.4199 77.1318 42.2838C77.2713 42.1476 77.4375 42.04 77.6205 41.9673C77.8035 41.8947 77.9997 41.8584 78.1974 41.8607C78.4412 41.8584 78.6818 41.9143 78.8982 42.0234C79.1147 42.1325 79.3003 42.2916 79.4388 42.4867V41.9227H79.9086V44.4943C79.9203 44.6938 79.8903 44.8936 79.8205 45.0816C79.7507 45.2696 79.6426 45.4419 79.5026 45.5883C79.3396 45.7314 79.149 45.8414 78.9419 45.9121C78.7347 45.9828 78.5151 46.0127 78.296 46C77.7784 46.0076 77.2714 45.8577 76.8458 45.5714ZM79.4504 43.3156C79.4459 43.1727 79.4122 43.032 79.3512 42.9019C79.2903 42.7717 79.2033 42.6547 79.0953 42.5576C78.9873 42.4604 78.8604 42.3852 78.7222 42.3362C78.584 42.2873 78.4371 42.2656 78.2902 42.2724C78.1465 42.2654 78.0029 42.2872 77.8682 42.3364C77.7335 42.3857 77.6107 42.4613 77.5074 42.5586C77.404 42.6559 77.3224 42.7728 77.2674 42.902C77.2125 43.0313 77.1855 43.1702 77.188 43.31C77.1872 43.4499 77.2153 43.5885 77.2707 43.7176C77.3261 43.8467 77.4076 43.9637 77.5104 44.0615C77.6133 44.1594 77.7353 44.2361 77.8692 44.2872C78.0032 44.3383 78.1463 44.3627 78.2902 44.3589C78.5814 44.3698 78.8656 44.2699 79.0822 44.0803C79.2989 43.8908 79.4309 43.6266 79.4504 43.3438V43.3156Z" fill="#4E4E4F"/>
<path d="M80.6924 44.6409L80.9302 44.3082C81.2438 44.5526 81.6306 44.6912 82.0324 44.7029C82.4152 44.7029 82.6879 44.5112 82.6879 44.2123C82.6879 43.9021 82.3166 43.7837 81.899 43.6484C81.4813 43.513 80.849 43.3438 80.849 42.7743C80.8551 42.6458 80.8886 42.5199 80.9473 42.4046C81.006 42.2893 81.0887 42.1871 81.1901 42.1044C81.2914 42.0217 81.4094 41.9604 81.5364 41.9243C81.6634 41.8881 81.7967 41.878 81.928 41.8945C82.3399 41.8976 82.7424 42.015 83.0881 42.2329L82.8735 42.5769C82.5954 42.3933 82.2697 42.2897 81.9338 42.278C81.5567 42.278 81.3189 42.4697 81.3189 42.7292C81.3189 43.0224 81.7133 43.1352 82.1368 43.2593C82.5603 43.3833 83.152 43.5863 83.152 44.1446C83.1545 44.2851 83.1254 44.4244 83.0668 44.5528C83.0082 44.6811 82.9214 44.7955 82.8125 44.8879C82.7037 44.9803 82.5754 45.0485 82.4366 45.0876C82.2979 45.1268 82.152 45.136 82.0092 45.1146C81.5289 45.1004 81.0665 44.9341 80.6924 44.6409Z" fill="#4E4E4F"/>
<path d="M83.6862 44.6409L83.9298 44.3082C84.2411 44.5526 84.6262 44.6912 85.0262 44.7029C85.409 44.7029 85.6875 44.5112 85.6875 44.2123C85.6875 43.9021 85.3104 43.7837 84.8927 43.6484C84.4751 43.513 83.8428 43.3438 83.8428 42.7743C83.8489 42.6458 83.8824 42.5199 83.9411 42.4046C83.9998 42.2893 84.0824 42.1871 84.1838 42.1044C84.2852 42.0217 84.4031 41.9604 84.5301 41.9243C84.6572 41.8881 84.7905 41.878 84.9217 41.8945C85.3337 41.8976 85.7362 42.015 86.0819 42.2329L85.8673 42.5769C85.5892 42.3933 85.2635 42.2897 84.9275 42.278C84.5563 42.278 84.3127 42.4697 84.3127 42.7292C84.3127 43.0224 84.7071 43.1352 85.1306 43.2593C85.554 43.3833 86.1515 43.5863 86.1515 44.1446C86.1515 44.7086 85.6527 45.0695 84.9914 45.0695C84.5206 45.0643 84.0637 44.9142 83.6862 44.6409Z" fill="#4E4E4F"/>
<path d="M86.8134 43.4961C86.8017 43.2929 86.832 43.0895 86.9025 42.8979C86.9731 42.7062 87.0824 42.5303 87.2241 42.3805C87.3658 42.2306 87.5369 42.1099 87.7274 42.0255C87.9179 41.9411 88.1239 41.8946 88.3332 41.8889C88.544 41.8917 88.7519 41.9372 88.9436 42.0225C89.1352 42.1079 89.3065 42.2313 89.4463 42.3847C89.5861 42.5381 89.6914 42.7182 89.7554 42.9135C89.8195 43.1088 89.8408 43.3149 89.8182 43.5187C89.8212 43.5694 89.8212 43.6202 89.8182 43.6709H87.2948C87.3039 43.9527 87.4262 44.2197 87.6356 44.4148C87.8449 44.6098 88.1245 44.7173 88.4144 44.7142C88.604 44.7163 88.7918 44.6786 88.965 44.6037C89.1382 44.5288 89.2927 44.4183 89.418 44.28L89.7138 44.5338C89.5537 44.7184 89.3524 44.8651 89.1252 44.9628C88.8981 45.0605 88.651 45.1066 88.4028 45.0977C88.1886 45.0994 87.9763 45.0588 87.7789 44.9782C87.5814 44.8976 87.4029 44.7787 87.2541 44.6289C87.1054 44.479 86.9897 44.3013 86.9139 44.1066C86.8381 43.9118 86.8039 43.7041 86.8134 43.4961ZM89.3367 43.3213C89.3384 43.0554 89.2332 42.7993 89.0437 42.6076C88.8541 42.4159 88.595 42.3038 88.3216 42.2949C88.0445 42.312 87.7842 42.43 87.5928 42.6255C87.4013 42.8211 87.2929 43.0796 87.289 43.3495L89.3367 43.3213Z" fill="#4E4E4F"/>
<path d="M90.6426 41.9453H91.1183V42.7517C91.215 42.4955 91.3917 42.2752 91.6237 42.1215C91.8556 41.9678 92.1312 41.8884 92.4118 41.8946V42.3852H92.377C92.1949 42.3867 92.0153 42.426 91.85 42.5003C91.6847 42.5747 91.5377 42.6824 91.4186 42.8163C91.2995 42.9503 91.2111 43.1073 91.1593 43.277C91.1075 43.4468 91.0935 43.6253 91.1183 43.8006V45.0357H90.6426V41.9453Z" fill="#4E4E4F"/>
<path d="M92.83 41.9453H93.352L94.4194 44.5056L95.4926 41.9453H96.003L94.6224 45.0582H94.2048L92.83 41.9453Z" fill="#4E4E4F"/>
<path d="M96.7462 40.761H97.2857V41.2686H96.7462V40.761ZM96.7752 41.9453H97.2451V45.0357H96.7752V41.9453Z" fill="#4E4E4F"/>
<path d="M98.1503 43.5018C98.1492 43.174 98.2512 42.8537 98.4427 42.5839C98.6342 42.314 98.906 42.1076 99.2217 41.9922C99.5373 41.8769 99.8817 41.8581 100.209 41.9384C100.536 42.0187 100.829 42.1943 101.051 42.4416L100.737 42.763C100.623 42.6245 100.479 42.5111 100.316 42.4304C100.153 42.3497 99.9746 42.3036 99.7919 42.295C99.634 42.2947 99.4778 42.3258 99.3327 42.3864C99.1876 42.4469 99.0568 42.5356 98.9481 42.6469C98.8395 42.7583 98.7555 42.8901 98.701 43.0342C98.6466 43.1783 98.6231 43.3316 98.6318 43.4849C98.6214 43.639 98.6438 43.7936 98.6974 43.939C98.7511 44.0845 98.8349 44.2176 98.9437 44.3302C99.0525 44.4428 99.1839 44.5325 99.3298 44.5938C99.4757 44.655 99.633 44.6864 99.7919 44.6861C99.9775 44.6809 100.16 44.6375 100.327 44.5588C100.494 44.4801 100.642 44.3677 100.761 44.2293L101.062 44.5C100.847 44.7499 100.558 44.9298 100.235 45.0155C99.9114 45.1012 99.5687 45.0885 99.2528 44.9792C98.9369 44.8699 98.6631 44.6691 98.4681 44.404C98.273 44.1389 98.1662 43.8221 98.1619 43.4962L98.1503 43.5018Z" fill="#4E4E4F"/>
<path d="M101.562 43.4961C101.55 43.2925 101.581 43.0886 101.651 42.8966C101.722 42.7046 101.832 42.5284 101.975 42.3785C102.117 42.2286 102.289 42.108 102.48 42.0239C102.671 41.9398 102.878 41.8939 103.087 41.8889C103.298 41.8924 103.505 41.9385 103.696 42.0242C103.887 42.1099 104.057 42.2334 104.197 42.3867C104.336 42.5401 104.441 42.7199 104.504 42.9148C104.568 43.1097 104.589 43.3154 104.567 43.5187C104.57 43.5694 104.57 43.6202 104.567 43.6709H102.049C102.057 43.9522 102.178 44.2192 102.386 44.4144C102.594 44.6096 102.873 44.7173 103.163 44.7142C103.353 44.7175 103.541 44.6803 103.714 44.6053C103.887 44.5303 104.042 44.4192 104.166 44.28L104.433 44.5507C104.273 44.7353 104.072 44.882 103.845 44.9797C103.617 45.0774 103.37 45.1235 103.122 45.1146C102.909 45.1126 102.698 45.0687 102.503 44.9853C102.308 44.902 102.132 44.781 101.986 44.6298C101.84 44.4785 101.727 44.3 101.654 44.1052C101.582 43.9103 101.55 43.7031 101.562 43.4961ZM104.085 43.3213C104.088 43.0559 103.984 42.7999 103.796 42.608C103.607 42.4162 103.349 42.3038 103.076 42.2949C102.798 42.3093 102.536 42.4266 102.344 42.6227C102.152 42.8188 102.044 43.0788 102.043 43.3495L104.085 43.3213Z" fill="#4E4E4F"/>
<path d="M106.969 44.6409L107.207 44.3082C107.52 44.5526 107.907 44.6912 108.309 44.7029C108.692 44.7029 108.965 44.5112 108.965 44.2123C108.965 43.9021 108.593 43.7837 108.176 43.6484C107.758 43.513 107.126 43.3438 107.126 42.7743C107.132 42.6458 107.165 42.5199 107.224 42.4046C107.283 42.2893 107.365 42.1871 107.467 42.1044C107.568 42.0217 107.686 41.9604 107.813 41.9243C107.94 41.8881 108.073 41.878 108.205 41.8945C108.617 41.8976 109.019 42.015 109.365 42.2329L109.15 42.5769C108.872 42.3933 108.546 42.2897 108.211 42.278C107.833 42.278 107.596 42.4697 107.596 42.7292C107.596 43.0224 107.99 43.1352 108.414 43.2593C108.837 43.3833 109.434 43.5863 109.434 44.1446C109.434 44.7086 108.936 45.0695 108.274 45.0695C107.803 45.0651 107.346 44.9149 106.969 44.6409Z" fill="#4E4E4F"/>
<path d="M110.236 43.8627V41.9453H110.711V43.7499C110.695 43.8691 110.706 43.9903 110.743 44.1049C110.78 44.2196 110.843 44.325 110.926 44.4137C111.01 44.5023 111.112 44.5722 111.226 44.6183C111.34 44.6643 111.464 44.6856 111.587 44.6804C111.718 44.6846 111.848 44.6621 111.97 44.6145C112.091 44.5668 112.201 44.495 112.292 44.4037C112.383 44.3124 112.454 44.2035 112.499 44.0842C112.545 43.9648 112.564 43.8375 112.556 43.7104V41.9453H113.026V45.0357H112.556V44.4717C112.453 44.6677 112.296 44.8317 112.102 44.9454C111.908 45.059 111.686 45.1176 111.46 45.1146C111.291 45.1247 111.121 45.0987 110.964 45.0385C110.806 44.9782 110.664 44.8852 110.548 44.7659C110.431 44.6466 110.343 44.5039 110.289 44.3479C110.235 44.1919 110.217 44.0263 110.236 43.8627ZM110.816 40.9133H111.361V41.4773H110.816V40.9133ZM111.889 40.9133H112.434V41.4773H111.889V40.9133Z" fill="#4E4E4F"/>
<path d="M113.885 43.4961C113.872 43.2927 113.902 43.089 113.972 42.897C114.043 42.705 114.152 42.5288 114.294 42.3788C114.436 42.2288 114.607 42.1081 114.798 42.0239C114.989 41.9398 115.195 41.8939 115.405 41.8889C115.649 41.89 115.888 41.9511 116.101 42.0664C116.314 42.1818 116.494 42.3477 116.623 42.5487V40.6877H117.093V45.0469H116.617V44.4097C116.492 44.6163 116.314 44.7881 116.101 44.9086C115.887 45.0291 115.646 45.0942 115.399 45.0977C115.19 45.0928 114.985 45.047 114.794 44.9631C114.604 44.8792 114.433 44.759 114.292 44.6095C114.151 44.46 114.042 44.2844 113.972 44.0931C113.902 43.9018 113.872 43.6988 113.885 43.4961ZM116.64 43.4961C116.648 43.3433 116.624 43.1906 116.569 43.0472C116.514 42.9038 116.43 42.7727 116.322 42.6619C116.213 42.5511 116.083 42.463 115.938 42.4028C115.793 42.3426 115.637 42.3117 115.48 42.3119C115.324 42.3113 115.17 42.3423 115.028 42.4029C114.885 42.4635 114.757 42.5523 114.651 42.6638C114.546 42.7752 114.466 42.9068 114.416 43.0501C114.366 43.1934 114.347 43.3453 114.361 43.4961C114.351 43.6466 114.373 43.7973 114.424 43.9394C114.476 44.0816 114.556 44.2122 114.661 44.3237C114.765 44.4351 114.891 44.5251 115.032 44.5883C115.173 44.6515 115.325 44.6867 115.48 44.6917C115.795 44.6785 116.091 44.5446 116.304 44.3195C116.517 44.0943 116.63 43.7962 116.617 43.4905L116.64 43.4961Z" fill="#4E4E4F"/>
<path d="M118.016 42.9942H119.756V43.4792H118.016V42.9942Z" fill="#4E4E4F"/>
<path d="M120.319 41.9453H120.824L121.659 44.4266L122.512 41.934H122.907L123.766 44.4266L124.601 41.9453H125.094L123.974 45.0582H123.58L122.727 42.622L121.839 45.0582H121.422L120.319 41.9453Z" fill="#4E4E4F"/>
<path d="M125.524 43.4961C125.51 43.2906 125.54 43.0846 125.611 42.8905C125.682 42.6965 125.792 42.5184 125.936 42.3671C126.08 42.2158 126.253 42.0944 126.447 42.0103C126.64 41.9262 126.849 41.881 127.061 41.8776C127.271 41.8811 127.478 41.9272 127.669 42.0129C127.86 42.0987 128.031 42.2221 128.17 42.3755C128.309 42.5288 128.414 42.7086 128.478 42.9035C128.541 43.0984 128.563 43.3041 128.54 43.5074C128.543 43.5581 128.543 43.6089 128.54 43.6596H126.022C126.031 43.9414 126.154 44.2084 126.363 44.4035C126.572 44.5985 126.852 44.706 127.142 44.7029C127.331 44.7057 127.518 44.6683 127.69 44.5933C127.863 44.5183 128.016 44.4075 128.14 44.2687L128.436 44.5225C128.275 44.7071 128.074 44.8538 127.847 44.9515C127.62 45.0492 127.373 45.0953 127.125 45.0864C126.91 45.0896 126.698 45.0504 126.5 44.9712C126.302 44.892 126.122 44.7744 125.973 44.6256C125.823 44.4768 125.706 44.2999 125.629 44.1058C125.551 43.9116 125.516 43.7042 125.524 43.4961ZM128.047 43.3213C128.05 43.0596 127.95 42.8068 127.766 42.6156C127.582 42.4243 127.33 42.3095 127.061 42.2949C126.783 42.3093 126.521 42.4266 126.329 42.6227C126.137 42.8187 126.029 43.0788 126.028 43.3495L128.047 43.3213Z" fill="#4E4E4F"/>
<path d="M129.092 44.6409L129.329 44.3082C129.643 44.5527 130.03 44.6912 130.432 44.703C130.809 44.703 131.087 44.5112 131.087 44.2123C131.087 43.9022 130.71 43.7838 130.298 43.6484C129.799 43.5131 129.242 43.3439 129.242 42.7743C129.249 42.6456 129.283 42.5196 129.343 42.4043C129.402 42.2889 129.485 42.1868 129.587 42.1042C129.689 42.0216 129.807 41.9603 129.935 41.9243C130.062 41.8882 130.196 41.8781 130.327 41.8946C130.739 41.8986 131.141 42.0159 131.487 42.2329L131.273 42.5769C130.995 42.3934 130.669 42.2898 130.333 42.2781C129.956 42.2781 129.718 42.4698 129.718 42.7292C129.718 43.0224 130.107 43.1352 130.536 43.2593C130.965 43.3834 131.551 43.5864 131.551 44.1447C131.551 44.7086 131.058 45.0695 130.391 45.0695C129.922 45.0651 129.467 44.9149 129.092 44.6409Z" fill="#4E4E4F"/>
<path d="M132.515 44.2123V42.3513H132.074V41.9453H132.515V41.0148H132.99V41.9453H134.023V42.3513H133.013V44.1559C133.004 44.2261 133.011 44.2974 133.034 44.3644C133.058 44.4314 133.097 44.4921 133.149 44.5419C133.2 44.5917 133.263 44.6291 133.332 44.6511C133.402 44.6732 133.475 44.6794 133.547 44.6691C133.707 44.6713 133.864 44.6345 134.005 44.562V44.9567C133.827 45.0483 133.627 45.093 133.425 45.0864C133.303 45.1018 133.179 45.0899 133.062 45.0515C132.945 45.0132 132.839 44.9495 132.751 44.8653C132.663 44.781 132.596 44.6784 132.555 44.5653C132.514 44.4522 132.5 44.3314 132.515 44.2123Z" fill="#4E4E4F"/>
<path d="M58.9702 11.961L60.8152 9.81241C61.9643 10.8573 63.4661 11.4588 65.039 11.5042C66.3154 11.5042 67.087 11.0136 67.087 10.2072V10.1508C67.087 9.38382 66.5997 8.98907 64.2325 8.39694C61.378 7.69202 59.5388 6.92507 59.5388 4.19V4.15052C59.5388 1.6523 61.6043 -2.36695e-05 64.4936 -2.36695e-05C66.4033 -0.0286709 68.2637 0.589391 69.7559 1.74817L68.1372 4.0321C67.0788 3.22732 65.7942 2.75344 64.453 2.67302C63.2926 2.67302 62.6312 3.23695 62.6312 3.87419V3.91367C62.6312 4.8216 63.2114 5.11485 65.6888 5.72389C68.5897 6.45137 70.1794 7.45517 70.1794 9.85188V9.89136C70.1794 12.6264 68.0385 14.1603 64.9577 14.1603C62.7525 14.1626 60.6227 13.3803 58.9702 11.961Z" fill="#4E4E4F"/>
<path d="M73.0339 0.197388H76.149V13.963H73.0339V0.197388Z" fill="#4E4E4F"/>
<path d="M79.6887 0.197388H90.3758V2.89299H82.7869V5.71265H89.4649V8.40825H82.7869V11.2787H90.4744V13.9686H79.6887V0.197388Z" fill="#4E4E4F"/>
<path d="M93.2477 0.197358H99.827C101.178 0.112666 102.508 0.550519 103.529 1.41545C103.847 1.71968 104.098 2.08459 104.264 2.4873C104.431 2.89002 104.51 3.32186 104.498 3.75577V3.79525C104.515 4.41252 104.349 5.02165 104.019 5.54903C103.688 6.07642 103.208 6.49951 102.635 6.76718C104.277 7.37622 105.287 8.30107 105.287 10.1508V10.1902C105.287 12.7054 103.186 13.963 99.9895 13.963H93.2477V0.197358ZM99.1598 5.76338C100.535 5.76338 101.405 5.32915 101.405 4.30843V4.26895C101.405 3.36102 100.674 2.85348 99.357 2.85348H96.3111V5.76338H99.1598ZM99.9895 11.3068C101.364 11.3068 102.194 10.8388 102.194 9.81241V9.77858C102.194 8.85373 101.486 8.27852 99.8734 8.27852H96.3111V11.3068H99.9895Z" fill="#4E4E4F"/>
<path d="M107.857 0.197388H118.544V2.89299H110.955V5.71265H117.633V8.40825H110.955V11.2787H118.642V13.9686H107.857V0.197388Z" fill="#4E4E4F"/>
<path d="M121.416 0.197388H124.288L130.925 8.65638V0.197388H134.023V13.963H131.372L124.491 5.21075V13.963H121.416V0.197388Z" fill="#4E4E4F"/>
<path d="M58.9702 26.612V20.0027H61.5869V26.5443C61.5869 28.4278 62.5558 29.4034 64.1513 29.4034C65.7468 29.4034 66.7215 28.4617 66.7215 26.6289V20.0027H69.3382V26.5048C69.3382 30.0069 67.3133 31.7268 64.1165 31.7268C60.9196 31.7268 58.9702 30.0125 58.9702 26.612Z" fill="#4E4E4F"/>
<path d="M72.0012 20.0027H74.8441L77.9713 24.892L81.0986 20.0027H83.9183V31.5802H81.319V24.0179L77.9713 28.9579H77.9075L74.5889 24.0686V31.5802H72.0012V20.0027Z" fill="#4E4E4F"/>
<path d="M86.3956 29.6347L92.9343 22.2359H86.5987V19.9802H96.311V21.937L89.7607 29.3245H96.311V31.5803H86.3956V29.6347Z" fill="#4E4E4F"/>
<path d="M98.5912 26.612V20.0027H101.208V26.5443C101.208 28.4279 102.177 29.4035 103.778 29.4035C105.379 29.4035 106.342 28.4617 106.342 26.6289V20.0027H108.959V26.5049C108.959 30.0069 106.934 31.7269 103.737 31.7269C100.541 31.7269 98.5912 30.0125 98.5912 26.612ZM100.686 17.0251H103.163V19.123H100.686V17.0251ZM104.387 17.0251H106.87V19.123H104.387V17.0251Z" fill="#4E4E4F"/>
<path d="M111.1 25.8168V25.783C111.094 24.9896 111.251 24.203 111.563 23.4698C111.875 22.7365 112.335 22.0716 112.916 21.5142C113.497 20.9568 114.187 20.5184 114.945 20.2249C115.704 19.9314 116.515 19.7887 117.331 19.8053C119.043 19.719 120.722 20.2878 122.008 21.39L120.36 23.3243C119.523 22.5494 118.405 22.1277 117.25 22.1513C116.306 22.1909 115.417 22.5922 114.776 23.2675C114.136 23.9428 113.797 24.8371 113.833 25.7548C113.804 26.2299 113.876 26.7057 114.045 27.1525C114.213 27.5993 114.475 28.0076 114.813 28.3519C115.151 28.6963 115.558 28.9694 116.009 29.1542C116.461 29.3389 116.946 29.4315 117.436 29.426C118.309 29.4596 119.171 29.227 119.901 28.7606V27.1083H117.267V24.9089H122.419V29.9336C121.008 31.1196 119.203 31.7704 117.337 31.7663C113.647 31.7663 111.1 29.2343 111.1 25.8168Z" fill="#4E4E4F"/>
<path d="M124.943 20.0027H133.919V22.2584H127.537V24.5987H133.147V26.8545H127.537V29.3245H134.023V31.5802H124.943V20.0027Z" fill="#4E4E4F"/>
<path d="M134 35.8549H58.9702V36.5767H134V35.8549Z" fill="#4E4E4F"/>
</g>
<defs>
<clipPath id="clip0_148_945">
<rect width="134" height="46" fill="white"/>
</clipPath>
</defs>
</svg>
